<svg width="450" height="300" viewBox="0 0 450 300" fill="none" xmlns="http://www.w3.org/2000/svg">
<path d="M225 205.783C255.808 205.783 280.783 180.808 280.783 150C280.783 119.192 255.808 94.2174 225 94.2174C194.192 94.2174 169.217 119.192 169.217 150C169.217 180.808 194.192 205.783 225 205.783Z" fill="url(#paint0_linear_1_2105)" stroke="url(#paint1_linear_1_2105)" stroke-width="2"/>
<path fill-rule="evenodd" clip-rule="evenodd" d="M225 60C222.298 60 220.109 62.1899 220.109 64.8913V80.5435C220.109 83.2449 222.298 85.4348 225 85.4348C227.701 85.4348 229.891 83.2449 229.891 80.5435V64.8913C229.891 62.1899 227.701 60 225 60ZM225 214.565C222.298 214.565 220.109 216.755 220.109 219.457V235.109C220.109 237.81 222.298 240 225 240C227.701 240 229.891 237.81 229.891 235.109V219.457C229.891 216.755 227.701 214.565 225 214.565ZM263.318 73.848C264.669 71.5086 267.66 70.707 270 72.0577C272.339 73.4084 273.141 76.3999 271.79 78.7393L263.964 92.2945C262.613 94.634 259.622 95.4355 257.283 94.0849C254.943 92.7342 254.141 89.7427 255.492 87.4032L263.318 73.848ZM192.717 205.915C190.378 204.564 187.386 205.366 186.036 207.705L178.21 221.261C176.859 223.6 177.66 226.592 180 227.942C182.339 229.293 185.331 228.491 186.682 226.152L194.508 212.597C195.858 210.257 195.057 207.266 192.717 205.915ZM296.261 103.21C298.6 101.859 301.592 102.66 302.942 105C304.293 107.339 303.491 110.331 301.152 111.682L287.597 119.508C285.257 120.858 282.266 120.057 280.915 117.717C279.564 115.378 280.366 112.386 282.705 111.036L296.261 103.21ZM169.085 182.283C167.734 179.943 164.743 179.142 162.403 180.492L148.848 188.318C146.509 189.669 145.707 192.66 147.058 195C148.408 197.339 151.4 198.141 153.739 196.79L167.295 188.964C169.634 187.614 170.436 184.622 169.085 182.283ZM310.109 145.109C312.81 145.109 315 147.299 315 150C315 152.701 312.81 154.891 310.109 154.891H294.456C291.755 154.891 289.565 152.701 289.565 150C289.565 147.299 291.755 145.109 294.456 145.109H310.109ZM160.435 150C160.435 147.299 158.245 145.109 155.543 145.109H139.891C137.19 145.109 135 147.299 135 150C135 152.701 137.19 154.891 139.891 154.891H155.543C158.245 154.891 160.435 152.701 160.435 150ZM301.152 188.318C303.491 189.669 304.293 192.66 302.942 195C301.592 197.339 298.6 198.141 296.261 196.79L282.705 188.964C280.366 187.614 279.564 184.622 280.915 182.283C282.266 179.943 285.257 179.142 287.597 180.492L301.152 188.318ZM169.085 117.717C170.436 115.378 169.634 112.386 167.295 111.036L153.739 103.21C151.4 101.859 148.408 102.66 147.058 105C145.707 107.339 146.509 110.331 148.848 111.682L162.403 119.508C164.743 120.858 167.734 120.057 169.085 117.717ZM271.79 221.261C273.141 223.6 272.339 226.592 270 227.942C267.66 229.293 264.669 228.491 263.318 226.152L255.492 212.597C254.142 210.257 254.943 207.266 257.283 205.915C259.622 204.564 262.614 205.366 263.964 207.705L271.79 221.261ZM192.717 94.0848C195.057 92.7341 195.858 89.7426 194.508 87.4032L186.682 73.848C185.331 71.5085 182.339 70.7069 180 72.0576C177.66 73.4083 176.859 76.3998 178.21 78.7393L186.036 92.2945C187.386 94.6339 190.378 95.4355 192.717 94.0848Z" fill="url(#paint2_linear_1_2105)"/>
<defs>
<linearGradient id="paint0_linear_1_2105" x1="255.815" y1="103.043" x2="206.093" y2="205.21" gradientUnits="userSpaceOnUse">
<stop offset="0.182844" stop-color="#FFE600"/>
<stop offset="0.980542" stop-color="#F09000"/>
</linearGradient>
<linearGradient id="paint1_linear_1_2105" x1="197.017" y1="82.6891" x2="274.16" y2="267.983" gradientUnits="userSpaceOnUse">
<stop stop-color="#FFE600"/>
<stop offset="1" stop-color="#9C8D00"/>
</linearGradient>
<linearGradient id="paint2_linear_1_2105" x1="291.032" y1="83.4782" x2="157.5" y2="240" gradientUnits="userSpaceOnUse">
<stop stop-color="#FFE600"/>
<stop offset="1" stop-color="#AA9900"/>
</linearGradient>
</defs>
</svg>
