<svg width="450" height="300" viewBox="0 0 450 300" fill="none" xmlns="http://www.w3.org/2000/svg">
<mask id="path-1-outside-1_4_2253" maskUnits="userSpaceOnUse" x="176" y="71" width="142" height="158" fill="black">
<rect fill="white" x="176" y="71" width="142" height="158"/>
<path fill-rule="evenodd" clip-rule="evenodd" d="M312.716 199.497C310.908 199.625 309.083 199.69 307.243 199.69C265.059 199.69 230.862 165.493 230.862 123.309C230.862 104.515 237.65 87.3056 248.908 74C209.279 76.8056 178 109.844 178 150.188C178 192.372 212.197 226.569 254.381 226.569C277.771 226.569 298.705 216.056 312.716 199.497Z"/>
</mask>
<path fill-rule="evenodd" clip-rule="evenodd" d="M312.716 199.497C310.908 199.625 309.083 199.69 307.243 199.69C265.059 199.69 230.862 165.493 230.862 123.309C230.862 104.515 237.65 87.3056 248.908 74C209.279 76.8056 178 109.844 178 150.188C178 192.372 212.197 226.569 254.381 226.569C277.771 226.569 298.705 216.056 312.716 199.497Z" fill="url(#paint0_linear_4_2253)"/>
<path d="M312.716 199.497L314.243 200.789L317.307 197.167L312.574 197.502L312.716 199.497ZM248.908 74L250.435 75.2919L253.5 71.6699L248.767 72.005L248.908 74ZM312.574 197.502C310.814 197.627 309.036 197.69 307.243 197.69V201.69C309.13 201.69 311.002 201.623 312.857 201.492L312.574 197.502ZM307.243 197.69C266.164 197.69 232.862 164.389 232.862 123.309H228.862C228.862 166.598 263.954 201.69 307.243 201.69V197.69ZM232.862 123.309C232.862 105.005 239.471 88.2499 250.435 75.2919L247.382 72.7081C235.829 86.3613 228.862 104.024 228.862 123.309H232.862ZM180 150.188C180 110.901 210.459 78.727 249.05 75.995L248.767 72.005C208.098 74.8842 176 108.787 176 150.188H180ZM254.381 224.569C213.302 224.569 180 191.268 180 150.188H176C176 193.477 211.092 228.569 254.381 228.569V224.569ZM311.189 198.205C297.542 214.334 277.158 224.569 254.381 224.569V228.569C278.384 228.569 299.868 217.778 314.243 200.789L311.189 198.205Z" fill="url(#paint1_linear_4_2253)" mask="url(#path-1-outside-1_4_2253)"/>
<path d="M146.057 86.2914L141.558 77.2055C140.102 74.2648 135.898 74.2648 134.442 77.2055L129.943 86.2914C129.657 86.869 129.103 87.2709 128.461 87.364L118.401 88.821C115.15 89.2919 113.843 93.2812 116.203 95.5744L123.482 102.647C123.946 103.097 124.156 103.745 124.047 104.379L122.329 114.365C121.771 117.606 125.18 120.061 128.085 118.539L137.083 113.824C137.657 113.524 138.343 113.524 138.917 113.824L147.915 118.539C150.82 120.061 154.229 117.606 153.671 114.365L151.953 104.379C151.844 103.745 152.055 103.097 152.518 102.647L159.797 95.5744C162.157 93.2812 160.85 89.2919 157.599 88.821L147.539 87.364C146.897 87.2709 146.343 86.869 146.057 86.2914Z" fill="url(#paint2_linear_4_2253)" stroke="url(#paint3_linear_4_2253)" stroke-width="2"/>
<path d="M312.095 141.253L308.517 133.898C307.286 131.367 303.714 131.367 302.483 133.898L298.905 141.253C298.703 141.667 298.318 141.947 297.88 142.011L289.878 143.191C287.106 143.599 286.039 147.025 288.013 148.976L293.803 154.702C294.126 155.021 294.277 155.485 294.199 155.944L292.832 164.028C292.368 166.771 295.22 168.932 297.715 167.602L304.872 163.785C305.266 163.575 305.734 163.575 306.128 163.785L313.285 167.602C315.779 168.932 318.632 166.771 318.168 164.028L316.801 155.944C316.723 155.485 316.874 155.021 317.197 154.702L322.987 148.976C324.961 147.025 323.894 143.599 321.122 143.191L313.12 142.011C312.682 141.947 312.297 141.667 312.095 141.253Z" fill="url(#paint4_linear_4_2253)" stroke="url(#paint5_linear_4_2253)" stroke-width="2"/>
<defs>
<linearGradient id="paint0_linear_4_2253" x1="259.533" y1="122.637" x2="227.278" y2="226.569" gradientUnits="userSpaceOnUse">
<stop stop-color="#FFEFB8"/>
<stop offset="1" stop-color="#FFD600"/>
</linearGradient>
<linearGradient id="paint1_linear_4_2253" x1="171.504" y1="50.7358" x2="289.996" y2="253.224" gradientUnits="userSpaceOnUse">
<stop stop-color="#FFF2AF"/>
<stop offset="1" stop-color="#CEBA00"/>
</linearGradient>
<linearGradient id="paint2_linear_4_2253" x1="144" y1="89" x2="127" y2="118" gradientUnits="userSpaceOnUse">
<stop stop-color="#FFF59F"/>
<stop offset="1" stop-color="#EDD500"/>
</linearGradient>
<linearGradient id="paint3_linear_4_2253" x1="121.5" y1="73" x2="152.5" y2="133" gradientUnits="userSpaceOnUse">
<stop stop-color="#FFF6A6"/>
<stop offset="1" stop-color="#D1BC00"/>
</linearGradient>
<linearGradient id="paint4_linear_4_2253" x1="310.273" y1="143.524" x2="296.394" y2="166.788" gradientUnits="userSpaceOnUse">
<stop stop-color="#FFF59F"/>
<stop offset="1" stop-color="#EDD500"/>
</linearGradient>
<linearGradient id="paint5_linear_4_2253" x1="292.375" y1="130.571" x2="317.723" y2="178.78" gradientUnits="userSpaceOnUse">
<stop stop-color="#FFF6A6"/>
<stop offset="1" stop-color="#D1BC00"/>
</linearGradient>
</defs>
</svg>
