<svg width="450" height="300" viewBox="0 0 450 300" fill="none" xmlns="http://www.w3.org/2000/svg">
<circle cx="282" cy="135" r="55.7826" fill="url(#paint0_linear_1_2106)" stroke="url(#paint1_linear_1_2106)" stroke-width="2"/>
<path fill-rule="evenodd" clip-rule="evenodd" d="M282 45C279.298 45 277.109 47.1899 277.109 49.8913V65.5435C277.109 68.2449 279.298 70.4348 282 70.4348C284.701 70.4348 286.891 68.2449 286.891 65.5435V49.8913C286.891 47.1899 284.701 45 282 45ZM282 199.565C279.298 199.565 277.109 201.755 277.109 204.457V220.109C277.109 222.81 279.298 225 282 225C284.701 225 286.891 222.81 286.891 220.109V204.457C286.891 201.755 284.701 199.565 282 199.565ZM320.318 58.848C321.669 56.5086 324.66 55.707 327 57.0577C329.339 58.4084 330.141 61.3999 328.79 63.7393L320.964 77.2945C319.613 79.634 316.622 80.4355 314.283 79.0848C311.943 77.7341 311.141 74.7427 312.492 72.4032L320.318 58.848ZM249.717 190.915C247.378 189.564 244.386 190.366 243.036 192.705L235.21 206.261C233.859 208.6 234.66 211.592 237 212.942C239.339 214.293 242.331 213.491 243.682 211.152L251.508 197.597C252.858 195.257 252.057 192.266 249.717 190.915ZM353.261 88.2096C355.6 86.8589 358.592 87.6605 359.942 90C361.293 92.3394 360.491 95.3309 358.152 96.6816L344.597 104.508C342.257 105.858 339.266 105.057 337.915 102.717C336.564 100.378 337.366 97.3864 339.705 96.0357L353.261 88.2096ZM226.085 167.283C224.734 164.943 221.743 164.142 219.403 165.492L205.848 173.318C203.509 174.669 202.707 177.66 204.058 180C205.408 182.339 208.4 183.141 210.739 181.79L224.295 173.964C226.634 172.614 227.436 169.622 226.085 167.283ZM367.109 130.109C369.81 130.109 372 132.299 372 135C372 137.701 369.81 139.891 367.109 139.891H351.456C348.755 139.891 346.565 137.701 346.565 135C346.565 132.299 348.755 130.109 351.456 130.109H367.109ZM217.435 135C217.435 132.299 215.245 130.109 212.543 130.109H196.891C194.19 130.109 192 132.299 192 135C192 137.701 194.19 139.891 196.891 139.891H212.543C215.245 139.891 217.435 137.701 217.435 135ZM358.152 173.318C360.491 174.669 361.293 177.66 359.942 180C358.592 182.339 355.6 183.141 353.261 181.79L339.705 173.964C337.366 172.614 336.564 169.622 337.915 167.283C339.266 164.943 342.257 164.142 344.597 165.492L358.152 173.318ZM226.085 102.717C227.436 100.378 226.634 97.3864 224.295 96.0357L210.739 88.2096C208.4 86.8589 205.408 87.6605 204.058 90C202.707 92.3394 203.509 95.3309 205.848 96.6816L219.403 104.508C221.743 105.858 224.734 105.057 226.085 102.717ZM328.79 206.261C330.141 208.6 329.339 211.592 327 212.942C324.66 214.293 321.669 213.491 320.318 211.152L312.492 197.597C311.142 195.257 311.943 192.266 314.283 190.915C316.622 189.564 319.613 190.366 320.964 192.705L328.79 206.261ZM249.717 79.0848C252.057 77.7341 252.858 74.7426 251.508 72.4032L243.682 58.848C242.331 56.5085 239.339 55.7069 237 57.0576C234.66 58.4083 233.859 61.3998 235.21 63.7393L243.036 77.2945C244.386 79.6339 247.378 80.4355 249.717 79.0848Z" fill="url(#paint2_linear_1_2106)"/>
<g filter="url(#filter0_bd_1_2106)">
<mask id="path-3-outside-1_1_2106" maskUnits="userSpaceOnUse" x="77" y="103" width="255" height="155" fill="black">
<rect fill="white" x="77" y="103" width="255" height="155"/>
<path fill-rule="evenodd" clip-rule="evenodd" d="M259.882 174.014C259.882 176.423 259.758 178.804 259.517 181.149C266.953 174.687 276.664 170.775 287.288 170.775C310.68 170.775 329.643 189.738 329.643 213.13C329.643 236.523 310.68 255.486 287.288 255.486H122.638C122.626 255.486 122.613 255.486 122.601 255.486C122.589 255.486 122.576 255.486 122.564 255.486H122.352V255.485C98.3863 255.351 79 235.882 79 211.885C79 187.976 98.2441 168.562 122.088 168.287C124.999 132.851 154.681 105 190.868 105C228.983 105 259.882 135.899 259.882 174.014Z"/>
</mask>
<path fill-rule="evenodd" clip-rule="evenodd" d="M259.882 174.014C259.882 176.423 259.758 178.804 259.517 181.149C266.953 174.687 276.664 170.775 287.288 170.775C310.68 170.775 329.643 189.738 329.643 213.13C329.643 236.523 310.68 255.486 287.288 255.486H122.638C122.626 255.486 122.613 255.486 122.601 255.486C122.589 255.486 122.576 255.486 122.564 255.486H122.352V255.485C98.3863 255.351 79 235.882 79 211.885C79 187.976 98.2441 168.562 122.088 168.287C124.999 132.851 154.681 105 190.868 105C228.983 105 259.882 135.899 259.882 174.014Z" fill="url(#paint3_linear_1_2106)" shape-rendering="crispEdges"/>
<path d="M259.517 181.149L257.528 180.945L257.011 185.977L260.829 182.659L259.517 181.149ZM122.352 255.486H120.352V257.486H122.352V255.486ZM122.352 255.485H124.352V253.496L122.363 253.485L122.352 255.485ZM122.088 168.287L122.111 170.287L123.932 170.266L124.081 168.45L122.088 168.287ZM261.507 181.353C261.755 178.94 261.882 176.492 261.882 174.014H257.882C257.882 176.355 257.762 178.667 257.528 180.945L261.507 181.353ZM287.288 168.775C276.163 168.775 265.991 172.873 258.206 179.639L260.829 182.659C267.915 176.501 277.164 172.775 287.288 172.775V168.775ZM331.643 213.13C331.643 188.634 311.785 168.775 287.288 168.775V172.775C309.576 172.775 327.643 190.843 327.643 213.13H331.643ZM287.288 257.486C311.785 257.486 331.643 237.627 331.643 213.13H327.643C327.643 235.418 309.576 253.486 287.288 253.486V257.486ZM287.288 253.486H122.638V257.486H287.288V253.486ZM122.601 257.486C122.608 257.486 122.615 257.486 122.621 257.486C122.627 257.486 122.632 257.486 122.638 257.486V253.486C122.631 253.486 122.624 253.486 122.618 253.486C122.612 253.486 122.606 253.486 122.601 253.486V257.486ZM122.564 257.486C122.57 257.486 122.575 257.486 122.581 257.486C122.587 257.486 122.594 257.486 122.601 257.486V253.486C122.596 253.486 122.59 253.486 122.584 253.486C122.578 253.486 122.571 253.486 122.564 253.486V257.486ZM122.564 253.486H122.352V257.486H122.564V253.486ZM124.352 255.486V255.485H120.352V255.486H124.352ZM77 211.885C77 236.983 97.2756 257.345 122.341 257.485L122.363 253.485C99.4971 253.357 81 234.781 81 211.885H77ZM122.065 166.287C97.1268 166.574 77 186.879 77 211.885H81C81 189.073 99.3614 170.549 122.111 170.287L122.065 166.287ZM190.868 103C153.631 103 123.09 131.658 120.095 168.123L124.081 168.45C126.908 134.044 155.731 107 190.868 107V103ZM261.882 174.014C261.882 134.794 230.088 103 190.868 103V107C227.879 107 257.882 137.003 257.882 174.014H261.882Z" fill="url(#paint4_linear_1_2106)" mask="url(#path-3-outside-1_1_2106)"/>
</g>
<defs>
<filter id="filter0_bd_1_2106" x="62" y="92" width="284.643" height="184.486" filterUnits="userSpaceOnUse" color-interpolation-filters="sRGB">
<feFlood flood-opacity="0" result="BackgroundImageFix"/>
<feGaussianBlur in="BackgroundImageFix" stdDeviation="5"/>
<feComposite in2="SourceAlpha" operator="in" result="effect1_backgroundBlur_1_2106"/>
<feColorMatrix in="SourceAlpha" type="matrix" values="0 0 0 0 0 0 0 0 0 0 0 0 0 0 0 0 0 0 127 0" result="hardAlpha"/>
<feOffset dy="4"/>
<feGaussianBlur stdDeviation="7.5"/>
<feComposite in2="hardAlpha" operator="out"/>
<feColorMatrix type="matrix" values="0 0 0 0 0 0 0 0 0 0 0 0 0 0 0 0 0 0 0.1 0"/>
<feBlend mode="normal" in2="effect1_backgroundBlur_1_2106" result="effect2_dropShadow_1_2106"/>
<feBlend mode="normal" in="SourceGraphic" in2="effect2_dropShadow_1_2106" result="shape"/>
</filter>
<linearGradient id="paint0_linear_1_2106" x1="312.815" y1="88.0435" x2="263.093" y2="190.21" gradientUnits="userSpaceOnUse">
<stop offset="0.182844" stop-color="#FFE600"/>
<stop offset="0.980542" stop-color="#F09000"/>
</linearGradient>
<linearGradient id="paint1_linear_1_2106" x1="254.017" y1="67.6891" x2="331.16" y2="252.983" gradientUnits="userSpaceOnUse">
<stop stop-color="#FFE600"/>
<stop offset="1" stop-color="#9C8D00"/>
</linearGradient>
<linearGradient id="paint2_linear_1_2106" x1="348.032" y1="68.4782" x2="214.5" y2="225" gradientUnits="userSpaceOnUse">
<stop stop-color="#FFE600"/>
<stop offset="1" stop-color="#AA9900"/>
</linearGradient>
<linearGradient id="paint3_linear_1_2106" x1="156.903" y1="104.372" x2="217.193" y2="256.113" gradientUnits="userSpaceOnUse">
<stop stop-color="white"/>
<stop offset="0.708333" stop-color="#9DDCFF" stop-opacity="0.69"/>
</linearGradient>
<linearGradient id="paint4_linear_1_2106" x1="196.193" y1="52.8889" x2="279.515" y2="317.081" gradientUnits="userSpaceOnUse">
<stop stop-color="white"/>
<stop offset="0.713542" stop-color="#85C6EC" stop-opacity="0.71"/>
</linearGradient>
</defs>
</svg>
