<svg width="450" height="300" viewBox="0 0 450 300" fill="none" xmlns="http://www.w3.org/2000/svg">
<mask id="path-1-outside-1_4_2255" maskUnits="userSpaceOnUse" x="196" y="44" width="142" height="158" fill="black">
<rect fill="white" x="196" y="44" width="142" height="158"/>
<path fill-rule="evenodd" clip-rule="evenodd" d="M332.716 172.497C330.908 172.625 329.083 172.69 327.243 172.69C285.059 172.69 250.862 138.493 250.862 96.3091C250.862 77.5146 257.65 60.3056 268.908 47C229.279 49.8056 198 82.8441 198 123.188C198 165.372 232.197 199.569 274.381 199.569C297.771 199.569 318.705 189.056 332.716 172.497Z"/>
</mask>
<path fill-rule="evenodd" clip-rule="evenodd" d="M332.716 172.497C330.908 172.625 329.083 172.69 327.243 172.69C285.059 172.69 250.862 138.493 250.862 96.3091C250.862 77.5146 257.65 60.3056 268.908 47C229.279 49.8056 198 82.8441 198 123.188C198 165.372 232.197 199.569 274.381 199.569C297.771 199.569 318.705 189.056 332.716 172.497Z" fill="url(#paint0_linear_4_2255)"/>
<path d="M332.716 172.497L334.243 173.789L337.307 170.167L332.574 170.502L332.716 172.497ZM268.908 47L270.435 48.2919L273.5 44.6699L268.767 45.005L268.908 47ZM332.574 170.502C330.814 170.627 329.036 170.69 327.243 170.69V174.69C329.13 174.69 331.002 174.623 332.857 174.492L332.574 170.502ZM327.243 170.69C286.164 170.69 252.862 137.389 252.862 96.3091H248.862C248.862 139.598 283.954 174.69 327.243 174.69V170.69ZM252.862 96.3091C252.862 78.0051 259.471 61.2499 270.435 48.2919L267.382 45.7081C255.829 59.3613 248.862 77.0241 248.862 96.3091H252.862ZM200 123.188C200 83.9013 230.459 51.727 269.05 48.995L268.767 45.005C228.098 47.8842 196 81.7868 196 123.188H200ZM274.381 197.569C233.302 197.569 200 164.268 200 123.188H196C196 166.477 231.092 201.569 274.381 201.569V197.569ZM331.189 171.205C317.542 187.334 297.158 197.569 274.381 197.569V201.569C298.384 201.569 319.868 190.778 334.243 173.789L331.189 171.205Z" fill="url(#paint1_linear_4_2255)" mask="url(#path-1-outside-1_4_2255)"/>
<path d="M166.057 59.2914L161.558 50.2055C160.102 47.2648 155.898 47.2648 154.442 50.2055L149.943 59.2914C149.657 59.869 149.103 60.2709 148.461 60.364L138.401 61.821C135.15 62.2919 133.843 66.2812 136.203 68.5744L143.482 75.6467C143.946 76.097 144.156 76.7447 144.047 77.3787L142.329 87.3651C141.771 90.6059 145.18 93.0615 148.085 91.5393L157.083 86.8244C157.657 86.5236 158.343 86.5236 158.917 86.8244L167.915 91.5393C170.82 93.0615 174.229 90.6059 173.671 87.3651L171.953 77.3787C171.844 76.7447 172.055 76.097 172.518 75.6467L179.797 68.5744C182.157 66.2812 180.85 62.2919 177.599 61.821L167.539 60.364C166.897 60.2709 166.343 59.869 166.057 59.2914Z" fill="url(#paint2_linear_4_2255)" stroke="url(#paint3_linear_4_2255)" stroke-width="2"/>
<path d="M344.095 120.253L340.517 112.898C339.286 110.367 335.714 110.367 334.483 112.898L330.905 120.253C330.703 120.667 330.318 120.947 329.88 121.011L321.878 122.191C319.106 122.599 318.039 126.025 320.013 127.976L325.803 133.702C326.126 134.021 326.277 134.485 326.199 134.944L324.832 143.028C324.368 145.771 327.22 147.932 329.715 146.602L336.872 142.785C337.266 142.575 337.734 142.575 338.128 142.785L345.285 146.602C347.779 147.932 350.632 145.771 350.168 143.028L348.801 134.944C348.723 134.485 348.874 134.021 349.197 133.702L354.987 127.976C356.961 126.025 355.894 122.599 353.122 122.191L345.12 121.011C344.682 120.947 344.297 120.667 344.095 120.253Z" fill="url(#paint4_linear_4_2255)" stroke="url(#paint5_linear_4_2255)" stroke-width="2"/>
<g filter="url(#filter0_bd_4_2255)">
<mask id="path-5-outside-2_4_2255" maskUnits="userSpaceOnUse" x="77" y="100" width="255" height="155" fill="black">
<rect fill="white" x="77" y="100" width="255" height="155"/>
<path fill-rule="evenodd" clip-rule="evenodd" d="M259.882 171.014C259.882 173.423 259.758 175.804 259.517 178.149C266.953 171.687 276.664 167.775 287.288 167.775C310.68 167.775 329.643 186.738 329.643 210.13C329.643 233.523 310.68 252.486 287.288 252.486H122.638C122.626 252.486 122.613 252.486 122.601 252.486C122.589 252.486 122.576 252.486 122.564 252.486H122.352V252.485C98.3863 252.351 79 232.882 79 208.885C79 184.976 98.2441 165.562 122.088 165.287C124.999 129.851 154.681 102 190.868 102C228.983 102 259.882 132.899 259.882 171.014Z"/>
</mask>
<path fill-rule="evenodd" clip-rule="evenodd" d="M259.882 171.014C259.882 173.423 259.758 175.804 259.517 178.149C266.953 171.687 276.664 167.775 287.288 167.775C310.68 167.775 329.643 186.738 329.643 210.13C329.643 233.523 310.68 252.486 287.288 252.486H122.638C122.626 252.486 122.613 252.486 122.601 252.486C122.589 252.486 122.576 252.486 122.564 252.486H122.352V252.485C98.3863 252.351 79 232.882 79 208.885C79 184.976 98.2441 165.562 122.088 165.287C124.999 129.851 154.681 102 190.868 102C228.983 102 259.882 132.899 259.882 171.014Z" fill="url(#paint6_linear_4_2255)" shape-rendering="crispEdges"/>
<path d="M259.517 178.149L257.528 177.945L257.011 182.977L260.829 179.659L259.517 178.149ZM122.352 252.486H120.352V254.486H122.352V252.486ZM122.352 252.485H124.352V250.496L122.363 250.485L122.352 252.485ZM122.088 165.287L122.111 167.287L123.932 167.266L124.081 165.45L122.088 165.287ZM261.507 178.353C261.755 175.94 261.882 173.492 261.882 171.014H257.882C257.882 173.355 257.762 175.667 257.528 177.945L261.507 178.353ZM287.288 165.775C276.163 165.775 265.991 169.873 258.206 176.639L260.829 179.659C267.915 173.501 277.164 169.775 287.288 169.775V165.775ZM331.643 210.13C331.643 185.634 311.785 165.775 287.288 165.775V169.775C309.576 169.775 327.643 187.843 327.643 210.13H331.643ZM287.288 254.486C311.785 254.486 331.643 234.627 331.643 210.13H327.643C327.643 232.418 309.576 250.486 287.288 250.486V254.486ZM287.288 250.486H122.638V254.486H287.288V250.486ZM122.601 254.486C122.608 254.486 122.615 254.486 122.621 254.486C122.627 254.486 122.632 254.486 122.638 254.486V250.486C122.631 250.486 122.624 250.486 122.618 250.486C122.612 250.486 122.606 250.486 122.601 250.486V254.486ZM122.564 254.486C122.57 254.486 122.575 254.486 122.581 254.486C122.587 254.486 122.594 254.486 122.601 254.486V250.486C122.596 250.486 122.59 250.486 122.584 250.486C122.578 250.486 122.571 250.486 122.564 250.486V254.486ZM122.564 250.486H122.352V254.486H122.564V250.486ZM124.352 252.486V252.485H120.352V252.486H124.352ZM77 208.885C77 233.983 97.2756 254.345 122.341 254.485L122.363 250.485C99.4971 250.357 81 231.781 81 208.885H77ZM122.065 163.287C97.1268 163.574 77 183.879 77 208.885H81C81 186.073 99.3614 167.549 122.111 167.287L122.065 163.287ZM190.868 100C153.631 100 123.09 128.658 120.095 165.123L124.081 165.45C126.908 131.044 155.731 104 190.868 104V100ZM261.882 171.014C261.882 131.794 230.088 100 190.868 100V104C227.879 104 257.882 134.003 257.882 171.014H261.882Z" fill="url(#paint7_linear_4_2255)" mask="url(#path-5-outside-2_4_2255)"/>
</g>
<defs>
<filter id="filter0_bd_4_2255" x="62" y="89" width="284.643" height="184.486" filterUnits="userSpaceOnUse" color-interpolation-filters="sRGB">
<feFlood flood-opacity="0" result="BackgroundImageFix"/>
<feGaussianBlur in="BackgroundImageFix" stdDeviation="5"/>
<feComposite in2="SourceAlpha" operator="in" result="effect1_backgroundBlur_4_2255"/>
<feColorMatrix in="SourceAlpha" type="matrix" values="0 0 0 0 0 0 0 0 0 0 0 0 0 0 0 0 0 0 127 0" result="hardAlpha"/>
<feOffset dy="4"/>
<feGaussianBlur stdDeviation="7.5"/>
<feComposite in2="hardAlpha" operator="out"/>
<feColorMatrix type="matrix" values="0 0 0 0 0 0 0 0 0 0 0 0 0 0 0 0 0 0 0.1 0"/>
<feBlend mode="normal" in2="effect1_backgroundBlur_4_2255" result="effect2_dropShadow_4_2255"/>
<feBlend mode="normal" in="SourceGraphic" in2="effect2_dropShadow_4_2255" result="shape"/>
</filter>
<linearGradient id="paint0_linear_4_2255" x1="279.533" y1="95.6371" x2="247.278" y2="199.569" gradientUnits="userSpaceOnUse">
<stop stop-color="#FFEFB8"/>
<stop offset="1" stop-color="#FFD600"/>
</linearGradient>
<linearGradient id="paint1_linear_4_2255" x1="191.504" y1="23.7358" x2="309.996" y2="226.224" gradientUnits="userSpaceOnUse">
<stop stop-color="#FFF2AF"/>
<stop offset="1" stop-color="#CEBA00"/>
</linearGradient>
<linearGradient id="paint2_linear_4_2255" x1="164" y1="62" x2="147" y2="91" gradientUnits="userSpaceOnUse">
<stop stop-color="#FFF59F"/>
<stop offset="1" stop-color="#EDD500"/>
</linearGradient>
<linearGradient id="paint3_linear_4_2255" x1="141.5" y1="46" x2="172.5" y2="106" gradientUnits="userSpaceOnUse">
<stop stop-color="#FFF6A6"/>
<stop offset="1" stop-color="#D1BC00"/>
</linearGradient>
<linearGradient id="paint4_linear_4_2255" x1="342.273" y1="122.524" x2="328.394" y2="145.788" gradientUnits="userSpaceOnUse">
<stop stop-color="#FFF59F"/>
<stop offset="1" stop-color="#EDD500"/>
</linearGradient>
<linearGradient id="paint5_linear_4_2255" x1="324.375" y1="109.571" x2="349.723" y2="157.78" gradientUnits="userSpaceOnUse">
<stop stop-color="#FFF6A6"/>
<stop offset="1" stop-color="#D1BC00"/>
</linearGradient>
<linearGradient id="paint6_linear_4_2255" x1="158.525" y1="117.5" x2="238.025" y2="247" gradientUnits="userSpaceOnUse">
<stop stop-color="#52ACFF"/>
<stop offset="1" stop-color="#052D93" stop-opacity="0.71"/>
</linearGradient>
<linearGradient id="paint7_linear_4_2255" x1="239.525" y1="302.5" x2="161.525" y2="82.5" gradientUnits="userSpaceOnUse">
<stop stop-color="#0066FF"/>
<stop offset="1" stop-color="#00378A" stop-opacity="0.34"/>
</linearGradient>
</defs>
</svg>
