<svg width="450" height="300" viewBox="0 0 450 300" fill="none" xmlns="http://www.w3.org/2000/svg">
<g filter="url(#filter0_bd_1_2107)">
<mask id="path-1-outside-1_1_2107" maskUnits="userSpaceOnUse" x="225" y="72" width="156" height="95" fill="black">
<rect fill="white" x="225" y="72" width="156" height="95"/>
<path fill-rule="evenodd" clip-rule="evenodd" d="M336.694 115.733C336.694 117.19 336.619 118.63 336.473 120.048C340.982 116.14 346.871 113.775 353.314 113.775C367.5 113.775 379 125.242 379 139.387C379 153.533 367.5 165 353.314 165H253.462C253.455 165 253.448 165 253.441 165C253.435 165 253.428 165 253.421 165H253.29V165C238.757 164.918 227 153.145 227 138.634C227 124.176 238.67 112.436 253.13 112.27C254.896 90.8416 272.896 74 294.841 74C317.956 74 336.694 92.6847 336.694 115.733Z"/>
</mask>
<path fill-rule="evenodd" clip-rule="evenodd" d="M336.694 115.733C336.694 117.19 336.619 118.63 336.473 120.048C340.982 116.14 346.871 113.775 353.314 113.775C367.5 113.775 379 125.242 379 139.387C379 153.533 367.5 165 353.314 165H253.462C253.455 165 253.448 165 253.441 165C253.435 165 253.428 165 253.421 165H253.29V165C238.757 164.918 227 153.145 227 138.634C227 124.176 238.67 112.436 253.13 112.27C254.896 90.8416 272.896 74 294.841 74C317.956 74 336.694 92.6847 336.694 115.733Z" fill="url(#paint0_linear_1_2107)" shape-rendering="crispEdges"/>
<path d="M336.473 120.048L334.483 119.843L333.966 124.867L337.783 121.559L336.473 120.048ZM253.29 165H251.29V167H253.29V165ZM253.29 165H255.29V163.011L253.301 163L253.29 165ZM253.13 112.27L253.153 114.27L254.974 114.249L255.123 112.434L253.13 112.27ZM338.462 120.253C338.615 118.767 338.694 117.259 338.694 115.733H334.694C334.694 117.122 334.623 118.493 334.483 119.843L338.462 120.253ZM353.314 111.775C346.372 111.775 340.022 114.325 335.163 118.537L337.783 121.559C341.942 117.955 347.37 115.775 353.314 115.775V111.775ZM381 139.387C381 124.132 368.599 111.775 353.314 111.775V115.775C366.401 115.775 377 126.352 377 139.387H381ZM353.314 167C368.599 167 381 154.643 381 139.387H377C377 152.423 366.401 163 353.314 163V167ZM353.314 163H253.462V167H353.314V163ZM253.441 167C253.445 167 253.449 167 253.453 167C253.456 167 253.459 167 253.462 167V163C253.458 163 253.454 163 253.45 163C253.447 163 253.444 163 253.441 163V167ZM253.421 167C253.424 167 253.427 167 253.43 167C253.433 167 253.437 167 253.441 167V163C253.439 163 253.436 163 253.432 163C253.429 163 253.425 163 253.421 163V167ZM253.421 163H253.29V167H253.421V163ZM255.29 165V165H251.29V165H255.29ZM225 138.634C225 154.252 237.651 166.912 253.279 167L253.301 163C239.862 162.925 229 152.039 229 138.634H225ZM253.107 110.27C237.558 110.449 225 123.074 225 138.634H229C229 125.278 239.782 114.424 253.153 114.27L253.107 110.27ZM294.841 72C271.851 72 252.987 89.6439 251.137 112.106L255.123 112.434C256.804 92.0394 273.941 76 294.841 76V72ZM338.694 115.733C338.694 91.5747 319.055 72 294.841 72V76C316.856 76 334.694 93.7947 334.694 115.733H338.694Z" fill="url(#paint1_linear_1_2107)" mask="url(#path-1-outside-1_1_2107)"/>
</g>
<g filter="url(#filter1_bd_1_2107)">
<mask id="path-3-outside-2_1_2107" maskUnits="userSpaceOnUse" x="69" y="74" width="255" height="155" fill="black">
<rect fill="white" x="69" y="74" width="255" height="155"/>
<path fill-rule="evenodd" clip-rule="evenodd" d="M251.882 145.014C251.882 147.423 251.758 149.804 251.517 152.149C258.953 145.687 268.664 141.775 279.288 141.775C302.68 141.775 321.643 160.738 321.643 184.13C321.643 207.523 302.68 226.486 279.288 226.486H114.638C114.626 226.486 114.613 226.486 114.601 226.486C114.589 226.486 114.576 226.486 114.564 226.486H114.352V226.485C90.3863 226.351 71 206.882 71 182.885C71 158.976 90.2441 139.562 114.088 139.287C116.999 103.851 146.681 76 182.868 76C220.983 76 251.882 106.899 251.882 145.014Z"/>
</mask>
<path fill-rule="evenodd" clip-rule="evenodd" d="M251.882 145.014C251.882 147.423 251.758 149.804 251.517 152.149C258.953 145.687 268.664 141.775 279.288 141.775C302.68 141.775 321.643 160.738 321.643 184.13C321.643 207.523 302.68 226.486 279.288 226.486H114.638C114.626 226.486 114.613 226.486 114.601 226.486C114.589 226.486 114.576 226.486 114.564 226.486H114.352V226.485C90.3863 226.351 71 206.882 71 182.885C71 158.976 90.2441 139.562 114.088 139.287C116.999 103.851 146.681 76 182.868 76C220.983 76 251.882 106.899 251.882 145.014Z" fill="url(#paint2_linear_1_2107)" shape-rendering="crispEdges"/>
<path d="M251.517 152.149L249.528 151.945L249.011 156.977L252.829 153.659L251.517 152.149ZM114.352 226.486H112.352V228.486H114.352V226.486ZM114.352 226.485H116.352V224.496L114.363 224.485L114.352 226.485ZM114.088 139.287L114.111 141.287L115.932 141.266L116.081 139.45L114.088 139.287ZM253.507 152.353C253.755 149.94 253.882 147.492 253.882 145.014H249.882C249.882 147.355 249.762 149.667 249.528 151.945L253.507 152.353ZM279.288 139.775C268.163 139.775 257.991 143.873 250.206 150.639L252.829 153.659C259.915 147.501 269.164 143.775 279.288 143.775V139.775ZM323.643 184.13C323.643 159.634 303.785 139.775 279.288 139.775V143.775C301.576 143.775 319.643 161.843 319.643 184.13H323.643ZM279.288 228.486C303.785 228.486 323.643 208.627 323.643 184.13H319.643C319.643 206.418 301.576 224.486 279.288 224.486V228.486ZM279.288 224.486H114.638V228.486H279.288V224.486ZM114.601 228.486C114.608 228.486 114.615 228.486 114.621 228.486C114.627 228.486 114.632 228.486 114.638 228.486V224.486C114.631 224.486 114.624 224.486 114.618 224.486C114.612 224.486 114.606 224.486 114.601 224.486V228.486ZM114.564 228.486C114.57 228.486 114.575 228.486 114.581 228.486C114.587 228.486 114.594 228.486 114.601 228.486V224.486C114.596 224.486 114.59 224.486 114.584 224.486C114.578 224.486 114.571 224.486 114.564 224.486V228.486ZM114.564 224.486H114.352V228.486H114.564V224.486ZM116.352 226.486V226.485H112.352V226.486H116.352ZM69 182.885C69 207.983 89.2756 228.345 114.341 228.485L114.363 224.485C91.4971 224.357 73 205.781 73 182.885H69ZM114.065 137.287C89.1268 137.574 69 157.879 69 182.885H73C73 160.073 91.3614 141.549 114.111 141.287L114.065 137.287ZM182.868 74C145.631 74 115.09 102.658 112.095 139.123L116.081 139.45C118.908 105.044 147.731 78 182.868 78V74ZM253.882 145.014C253.882 105.794 222.088 74 182.868 74V78C219.879 78 249.882 108.003 249.882 145.014H253.882Z" fill="url(#paint3_linear_1_2107)" mask="url(#path-3-outside-2_1_2107)"/>
</g>
<defs>
<filter id="filter0_bd_1_2107" x="210" y="61" width="186" height="125" filterUnits="userSpaceOnUse" color-interpolation-filters="sRGB">
<feFlood flood-opacity="0" result="BackgroundImageFix"/>
<feGaussianBlur in="BackgroundImageFix" stdDeviation="5"/>
<feComposite in2="SourceAlpha" operator="in" result="effect1_backgroundBlur_1_2107"/>
<feColorMatrix in="SourceAlpha" type="matrix" values="0 0 0 0 0 0 0 0 0 0 0 0 0 0 0 0 0 0 127 0" result="hardAlpha"/>
<feOffset dy="4"/>
<feGaussianBlur stdDeviation="7.5"/>
<feComposite in2="hardAlpha" operator="out"/>
<feColorMatrix type="matrix" values="0 0 0 0 0 0 0 0 0 0 0 0 0 0 0 0 0 0 0.1 0"/>
<feBlend mode="normal" in2="effect1_backgroundBlur_1_2107" result="effect2_dropShadow_1_2107"/>
<feBlend mode="normal" in="SourceGraphic" in2="effect2_dropShadow_1_2107" result="shape"/>
</filter>
<filter id="filter1_bd_1_2107" x="54" y="63" width="284.643" height="184.486" filterUnits="userSpaceOnUse" color-interpolation-filters="sRGB">
<feFlood flood-opacity="0" result="BackgroundImageFix"/>
<feGaussianBlur in="BackgroundImageFix" stdDeviation="5"/>
<feComposite in2="SourceAlpha" operator="in" result="effect1_backgroundBlur_1_2107"/>
<feColorMatrix in="SourceAlpha" type="matrix" values="0 0 0 0 0 0 0 0 0 0 0 0 0 0 0 0 0 0 127 0" result="hardAlpha"/>
<feOffset dy="4"/>
<feGaussianBlur stdDeviation="7.5"/>
<feComposite in2="hardAlpha" operator="out"/>
<feColorMatrix type="matrix" values="0 0 0 0 0 0 0 0 0 0 0 0 0 0 0 0 0 0 0.1 0"/>
<feBlend mode="normal" in2="effect1_backgroundBlur_1_2107" result="effect2_dropShadow_1_2107"/>
<feBlend mode="normal" in="SourceGraphic" in2="effect2_dropShadow_1_2107" result="shape"/>
</filter>
<linearGradient id="paint0_linear_1_2107" x1="274.243" y1="73.6205" x2="310.625" y2="165.451" gradientUnits="userSpaceOnUse">
<stop stop-color="white"/>
<stop offset="0.708333" stop-color="#9DDCFF" stop-opacity="0.69"/>
</linearGradient>
<linearGradient id="paint1_linear_1_2107" x1="298.07" y1="42.488" x2="348.338" y2="202.329" gradientUnits="userSpaceOnUse">
<stop stop-color="white"/>
<stop offset="0.713542" stop-color="#85C6EC" stop-opacity="0.71"/>
</linearGradient>
<linearGradient id="paint2_linear_1_2107" x1="148.903" y1="75.3724" x2="209.193" y2="227.113" gradientUnits="userSpaceOnUse">
<stop stop-color="white"/>
<stop offset="0.708333" stop-color="#9DDCFF" stop-opacity="0.69"/>
</linearGradient>
<linearGradient id="paint3_linear_1_2107" x1="188.193" y1="23.8889" x2="271.515" y2="288.081" gradientUnits="userSpaceOnUse">
<stop stop-color="white"/>
<stop offset="0.713542" stop-color="#85C6EC" stop-opacity="0.71"/>
</linearGradient>
</defs>
</svg>
