<svg width="450" height="300" viewBox="0 0 450 300" fill="none" xmlns="http://www.w3.org/2000/svg">
<mask id="mask0_1_2108" style="mask-type:alpha" maskUnits="userSpaceOnUse" x="150" y="0" width="244" height="205">
<rect x="205.292" width="211.7" height="121.078" transform="rotate(27.1719 205.292 0)" fill="#D9D9D9"/>
</mask>
<g mask="url(#mask0_1_2108)">
<path fill-rule="evenodd" clip-rule="evenodd" d="M262.655 56.3211C217.035 56.3211 180.053 93.3032 180.053 138.923C180.053 184.543 217.035 221.525 262.655 221.525C308.275 221.525 345.257 184.543 345.257 138.923C345.257 93.3032 308.275 56.3211 262.655 56.3211ZM172.572 138.923C172.572 89.1716 212.904 48.8402 262.655 48.8402C312.406 48.8402 352.738 89.1716 352.738 138.923C352.738 188.674 312.406 229.006 262.655 229.006C212.904 229.006 172.572 188.674 172.572 138.923Z" fill="#FF0000"/>
<path fill-rule="evenodd" clip-rule="evenodd" d="M262.343 63.1787C220.697 63.1787 186.911 97.0767 186.911 138.923C186.911 180.769 220.697 214.667 262.343 214.667C303.99 214.667 337.776 180.769 337.776 138.923C337.776 97.0767 303.99 63.1787 262.343 63.1787ZM179.43 138.923C179.43 92.9729 216.537 55.6978 262.343 55.6978C308.149 55.6978 345.257 92.9729 345.257 138.923C345.257 184.873 308.149 222.148 262.343 222.148C216.537 222.148 179.43 184.873 179.43 138.923Z" fill="#FF8A00"/>
<path fill-rule="evenodd" clip-rule="evenodd" d="M262.343 70.6596C224.83 70.6596 194.392 101.207 194.392 138.923C194.392 176.639 224.83 207.187 262.343 207.187C299.857 207.187 330.295 176.639 330.295 138.923C330.295 101.207 299.857 70.6596 262.343 70.6596ZM186.911 138.923C186.911 97.1059 220.668 63.1787 262.343 63.1787C304.019 63.1787 337.776 97.1059 337.776 138.923C337.776 180.74 304.019 214.667 262.343 214.667C220.668 214.667 186.911 180.74 186.911 138.923Z" fill="#FFD600"/>
<path fill-rule="evenodd" clip-rule="evenodd" d="M262.343 78.1405C228.585 78.1405 201.249 105.371 201.249 138.923C201.249 172.475 228.585 199.705 262.343 199.705C296.102 199.705 323.437 172.475 323.437 138.923C323.437 105.371 296.102 78.1405 262.343 78.1405ZM193.768 138.923C193.768 101.205 224.487 70.6595 262.343 70.6595C300.199 70.6595 330.918 101.205 330.918 138.923C330.918 176.641 300.199 207.186 262.343 207.186C224.487 207.186 193.768 176.641 193.768 138.923Z" fill="#0085FF"/>
<path fill-rule="evenodd" clip-rule="evenodd" d="M262.343 85.6214C232.714 85.6214 208.73 109.505 208.73 138.923C208.73 168.341 232.714 192.225 262.343 192.225C291.972 192.225 315.957 168.341 315.957 138.923C315.957 109.505 291.972 85.6214 262.343 85.6214ZM201.249 138.923C201.249 105.335 228.621 78.1405 262.343 78.1405C296.065 78.1405 323.437 105.335 323.437 138.923C323.437 172.511 296.065 199.706 262.343 199.706C228.621 199.706 201.249 172.511 201.249 138.923Z" fill="#0031DE"/>
</g>
<g filter="url(#filter0_bd_1_2108)">
<mask id="path-7-outside-1_1_2108" maskUnits="userSpaceOnUse" x="87" y="82" width="255" height="155" fill="black">
<rect fill="white" x="87" y="82" width="255" height="155"/>
<path fill-rule="evenodd" clip-rule="evenodd" d="M269.882 153.014C269.882 155.423 269.758 157.804 269.517 160.149C276.953 153.687 286.664 149.775 297.288 149.775C320.68 149.775 339.643 168.738 339.643 192.13C339.643 215.523 320.68 234.486 297.288 234.486H132.638C132.626 234.486 132.613 234.486 132.601 234.486C132.589 234.486 132.576 234.486 132.564 234.486H132.352V234.485C108.386 234.351 89 214.882 89 190.885C89 166.976 108.244 147.562 132.088 147.287C134.999 111.851 164.681 84 200.868 84C238.983 84 269.882 114.899 269.882 153.014Z"/>
</mask>
<path fill-rule="evenodd" clip-rule="evenodd" d="M269.882 153.014C269.882 155.423 269.758 157.804 269.517 160.149C276.953 153.687 286.664 149.775 297.288 149.775C320.68 149.775 339.643 168.738 339.643 192.13C339.643 215.523 320.68 234.486 297.288 234.486H132.638C132.626 234.486 132.613 234.486 132.601 234.486C132.589 234.486 132.576 234.486 132.564 234.486H132.352V234.485C108.386 234.351 89 214.882 89 190.885C89 166.976 108.244 147.562 132.088 147.287C134.999 111.851 164.681 84 200.868 84C238.983 84 269.882 114.899 269.882 153.014Z" fill="url(#paint0_linear_1_2108)" shape-rendering="crispEdges"/>
<path d="M269.517 160.149L267.528 159.945L267.011 164.977L270.829 161.659L269.517 160.149ZM132.352 234.486H130.352V236.486H132.352V234.486ZM132.352 234.485H134.352V232.496L132.363 232.485L132.352 234.485ZM132.088 147.287L132.111 149.287L133.932 149.266L134.081 147.45L132.088 147.287ZM271.507 160.353C271.755 157.94 271.882 155.492 271.882 153.014H267.882C267.882 155.355 267.762 157.667 267.528 159.945L271.507 160.353ZM297.288 147.775C286.163 147.775 275.991 151.873 268.206 158.639L270.829 161.659C277.915 155.501 287.164 151.775 297.288 151.775V147.775ZM341.643 192.13C341.643 167.634 321.785 147.775 297.288 147.775V151.775C319.576 151.775 337.643 169.843 337.643 192.13H341.643ZM297.288 236.486C321.785 236.486 341.643 216.627 341.643 192.13H337.643C337.643 214.418 319.576 232.486 297.288 232.486V236.486ZM297.288 232.486H132.638V236.486H297.288V232.486ZM132.601 236.486C132.608 236.486 132.615 236.486 132.621 236.486C132.627 236.486 132.632 236.486 132.638 236.486V232.486C132.631 232.486 132.624 232.486 132.618 232.486C132.612 232.486 132.606 232.486 132.601 232.486V236.486ZM132.564 236.486C132.57 236.486 132.575 236.486 132.581 236.486C132.587 236.486 132.594 236.486 132.601 236.486V232.486C132.596 232.486 132.59 232.486 132.584 232.486C132.578 232.486 132.571 232.486 132.564 232.486V236.486ZM132.564 232.486H132.352V236.486H132.564V232.486ZM134.352 234.486V234.485H130.352V234.486H134.352ZM87 190.885C87 215.983 107.276 236.345 132.341 236.485L132.363 232.485C109.497 232.357 91 213.781 91 190.885H87ZM132.065 145.287C107.127 145.574 87 165.879 87 190.885H91C91 168.073 109.361 149.549 132.111 149.287L132.065 145.287ZM200.868 82C163.631 82 133.09 110.658 130.095 147.123L134.081 147.45C136.908 113.044 165.731 86 200.868 86V82ZM271.882 153.014C271.882 113.794 240.088 82 200.868 82V86C237.879 86 267.882 116.003 267.882 153.014H271.882Z" fill="url(#paint1_linear_1_2108)" mask="url(#path-7-outside-1_1_2108)"/>
</g>
<defs>
<filter id="filter0_bd_1_2108" x="72" y="71" width="284.643" height="184.486" filterUnits="userSpaceOnUse" color-interpolation-filters="sRGB">
<feFlood flood-opacity="0" result="BackgroundImageFix"/>
<feGaussianBlur in="BackgroundImageFix" stdDeviation="5"/>
<feComposite in2="SourceAlpha" operator="in" result="effect1_backgroundBlur_1_2108"/>
<feColorMatrix in="SourceAlpha" type="matrix" values="0 0 0 0 0 0 0 0 0 0 0 0 0 0 0 0 0 0 127 0" result="hardAlpha"/>
<feOffset dy="4"/>
<feGaussianBlur stdDeviation="7.5"/>
<feComposite in2="hardAlpha" operator="out"/>
<feColorMatrix type="matrix" values="0 0 0 0 0 0 0 0 0 0 0 0 0 0 0 0 0 0 0.1 0"/>
<feBlend mode="normal" in2="effect1_backgroundBlur_1_2108" result="effect2_dropShadow_1_2108"/>
<feBlend mode="normal" in="SourceGraphic" in2="effect2_dropShadow_1_2108" result="shape"/>
</filter>
<linearGradient id="paint0_linear_1_2108" x1="166.903" y1="83.3724" x2="227.193" y2="235.113" gradientUnits="userSpaceOnUse">
<stop stop-color="white"/>
<stop offset="0.708333" stop-color="#9DDCFF" stop-opacity="0.69"/>
</linearGradient>
<linearGradient id="paint1_linear_1_2108" x1="206.193" y1="31.8889" x2="289.515" y2="296.081" gradientUnits="userSpaceOnUse">
<stop stop-color="white"/>
<stop offset="0.713542" stop-color="#85C6EC" stop-opacity="0.71"/>
</linearGradient>
</defs>
</svg>
