<svg width="450" height="300" viewBox="0 0 450 300" fill="none" xmlns="http://www.w3.org/2000/svg">
<path d="M237 198.783C267.808 198.783 292.783 173.808 292.783 143C292.783 112.192 267.808 87.2174 237 87.2174C206.192 87.2174 181.217 112.192 181.217 143C181.217 173.808 206.192 198.783 237 198.783Z" fill="url(#paint0_linear_3_2115)" stroke="url(#paint1_linear_3_2115)" stroke-width="2"/>
<path fill-rule="evenodd" clip-rule="evenodd" d="M237 53C234.298 53 232.109 55.1899 232.109 57.8913V73.5435C232.109 76.2449 234.298 78.4348 237 78.4348C239.701 78.4348 241.891 76.2449 241.891 73.5435V57.8913C241.891 55.1899 239.701 53 237 53ZM237 207.565C234.298 207.565 232.109 209.755 232.109 212.457V228.109C232.109 230.81 234.298 233 237 233C239.701 233 241.891 230.81 241.891 228.109V212.457C241.891 209.755 239.701 207.565 237 207.565ZM275.318 66.848C276.669 64.5086 279.66 63.707 282 65.0577C284.339 66.4084 285.141 69.3999 283.79 71.7393L275.964 85.2945C274.613 87.634 271.622 88.4355 269.283 87.0849C266.943 85.7342 266.141 82.7427 267.492 80.4032L275.318 66.848ZM204.717 198.915C202.378 197.564 199.386 198.366 198.036 200.705L190.21 214.261C188.859 216.6 189.66 219.592 192 220.942C194.339 222.293 197.331 221.491 198.682 219.152L206.508 205.597C207.858 203.257 207.057 200.266 204.717 198.915ZM308.261 96.2096C310.6 94.8589 313.592 95.6605 314.942 98C316.293 100.339 315.491 103.331 313.152 104.682L299.597 112.508C297.257 113.858 294.266 113.057 292.915 110.717C291.564 108.378 292.366 105.386 294.705 104.036L308.261 96.2096ZM181.085 175.283C179.734 172.943 176.743 172.142 174.403 173.492L160.848 181.318C158.509 182.669 157.707 185.66 159.058 188C160.408 190.339 163.4 191.141 165.739 189.79L179.295 181.964C181.634 180.614 182.436 177.622 181.085 175.283ZM322.109 138.109C324.81 138.109 327 140.299 327 143C327 145.701 324.81 147.891 322.109 147.891H306.456C303.755 147.891 301.565 145.701 301.565 143C301.565 140.299 303.755 138.109 306.456 138.109H322.109ZM172.435 143C172.435 140.299 170.245 138.109 167.543 138.109H151.891C149.19 138.109 147 140.299 147 143C147 145.701 149.19 147.891 151.891 147.891H167.543C170.245 147.891 172.435 145.701 172.435 143ZM313.152 181.318C315.491 182.669 316.293 185.66 314.942 188C313.592 190.339 310.6 191.141 308.261 189.79L294.705 181.964C292.366 180.614 291.564 177.622 292.915 175.283C294.266 172.943 297.257 172.142 299.597 173.492L313.152 181.318ZM181.085 110.717C182.436 108.378 181.634 105.386 179.295 104.036L165.739 96.2096C163.4 94.8589 160.408 95.6605 159.058 98C157.707 100.339 158.509 103.331 160.848 104.682L174.403 112.508C176.743 113.858 179.734 113.057 181.085 110.717ZM283.79 214.261C285.141 216.6 284.339 219.592 282 220.942C279.66 222.293 276.669 221.491 275.318 219.152L267.492 205.597C266.142 203.257 266.943 200.266 269.283 198.915C271.622 197.564 274.614 198.366 275.964 200.705L283.79 214.261ZM204.717 87.0848C207.057 85.7341 207.858 82.7426 206.508 80.4032L198.682 66.848C197.331 64.5085 194.339 63.7069 192 65.0576C189.66 66.4083 188.859 69.3998 190.21 71.7393L198.036 85.2945C199.386 87.6339 202.378 88.4355 204.717 87.0848Z" fill="url(#paint2_linear_3_2115)"/>
<g filter="url(#filter0_bd_3_2115)">
<mask id="path-3-outside-1_3_2115" maskUnits="userSpaceOnUse" x="140" y="157" width="99" height="61" fill="black">
<rect fill="white" x="140" y="157" width="99" height="61"/>
<path fill-rule="evenodd" clip-rule="evenodd" d="M210.559 185.141C210.559 186.053 210.512 186.955 210.421 187.843C213.239 185.396 216.919 183.914 220.946 183.914C229.813 183.914 237 191.097 237 199.957C237 208.817 229.813 216 220.946 216H158.542C158.537 216 158.531 216 158.526 216C158.52 216 158.515 216 158.51 216H158.431V216C149.348 215.949 142 208.575 142 199.485C142 190.429 149.294 183.075 158.331 182.971C159.435 169.549 170.685 159 184.401 159C198.847 159 210.559 170.704 210.559 185.141Z"/>
</mask>
<path fill-rule="evenodd" clip-rule="evenodd" d="M210.559 185.141C210.559 186.053 210.512 186.955 210.421 187.843C213.239 185.396 216.919 183.914 220.946 183.914C229.813 183.914 237 191.097 237 199.957C237 208.817 229.813 216 220.946 216H158.542C158.537 216 158.531 216 158.526 216C158.52 216 158.515 216 158.51 216H158.431V216C149.348 215.949 142 208.575 142 199.485C142 190.429 149.294 183.075 158.331 182.971C159.435 169.549 170.685 159 184.401 159C198.847 159 210.559 170.704 210.559 185.141Z" fill="url(#paint3_linear_3_2115)" shape-rendering="crispEdges"/>
<path d="M210.421 187.843L208.431 187.639L207.914 192.669L211.732 189.353L210.421 187.843ZM158.431 216H156.431V218H158.431V216ZM158.431 216H160.431V214.011L158.443 214L158.431 216ZM158.331 182.971L158.354 184.971L160.175 184.95L160.325 183.135L158.331 182.971ZM212.41 188.048C212.508 187.091 212.559 186.122 212.559 185.141H208.559C208.559 185.985 208.515 186.818 208.431 187.639L212.41 188.048ZM220.946 181.914C216.42 181.914 212.277 183.582 209.109 186.333L211.732 189.353C214.2 187.21 217.419 185.914 220.946 185.914V181.914ZM239 199.957C239 189.991 230.916 181.914 220.946 181.914V185.914C228.709 185.914 235 192.202 235 199.957H239ZM220.946 218C230.916 218 239 209.923 239 199.957H235C235 207.711 228.709 214 220.946 214V218ZM220.946 214H158.542V218H220.946V214ZM158.526 218C158.529 218 158.533 218 158.535 218C158.538 218 158.54 218 158.542 218V214C158.538 214 158.535 214 158.532 214C158.53 214 158.528 214 158.526 214V218ZM158.51 218C158.512 218 158.514 218 158.516 218C158.519 218 158.522 218 158.526 218V214C158.524 214 158.522 214 158.519 214C158.517 214 158.513 214 158.51 214V218ZM158.51 214H158.431V218H158.51V214ZM160.431 216V216H156.431V216H160.431ZM140 199.485C140 209.677 148.238 217.943 158.42 218L158.443 214C150.457 213.955 144 207.472 144 199.485H140ZM158.308 180.971C148.178 181.088 140 189.331 140 199.485H144C144 191.527 150.41 185.063 158.354 184.971L158.308 180.971ZM184.401 157C169.636 157 157.526 168.355 156.338 182.807L160.325 183.135C161.343 170.743 171.733 161 184.401 161V157ZM212.559 185.141C212.559 169.598 199.951 157 184.401 157V161C197.744 161 208.559 171.809 208.559 185.141H212.559Z" fill="url(#paint4_linear_3_2115)" mask="url(#path-3-outside-1_3_2115)"/>
</g>
<defs>
<filter id="filter0_bd_3_2115" x="125" y="146" width="129" height="91" filterUnits="userSpaceOnUse" color-interpolation-filters="sRGB">
<feFlood flood-opacity="0" result="BackgroundImageFix"/>
<feGaussianBlur in="BackgroundImageFix" stdDeviation="5"/>
<feComposite in2="SourceAlpha" operator="in" result="effect1_backgroundBlur_3_2115"/>
<feColorMatrix in="SourceAlpha" type="matrix" values="0 0 0 0 0 0 0 0 0 0 0 0 0 0 0 0 0 0 127 0" result="hardAlpha"/>
<feOffset dy="4"/>
<feGaussianBlur stdDeviation="7.5"/>
<feComposite in2="hardAlpha" operator="out"/>
<feColorMatrix type="matrix" values="0 0 0 0 0 0 0 0 0 0 0 0 0 0 0 0 0 0 0.1 0"/>
<feBlend mode="normal" in2="effect1_backgroundBlur_3_2115" result="effect2_dropShadow_3_2115"/>
<feBlend mode="normal" in="SourceGraphic" in2="effect2_dropShadow_3_2115" result="shape"/>
</filter>
<linearGradient id="paint0_linear_3_2115" x1="267.815" y1="96.0435" x2="218.093" y2="198.21" gradientUnits="userSpaceOnUse">
<stop offset="0.182844" stop-color="#FFE600"/>
<stop offset="0.980542" stop-color="#F09000"/>
</linearGradient>
<linearGradient id="paint1_linear_3_2115" x1="209.017" y1="75.6891" x2="286.16" y2="260.983" gradientUnits="userSpaceOnUse">
<stop stop-color="#FFE600"/>
<stop offset="1" stop-color="#9C8D00"/>
</linearGradient>
<linearGradient id="paint2_linear_3_2115" x1="303.032" y1="76.4782" x2="169.5" y2="233" gradientUnits="userSpaceOnUse">
<stop stop-color="#FFE600"/>
<stop offset="1" stop-color="#AA9900"/>
</linearGradient>
<linearGradient id="paint3_linear_3_2115" x1="171.527" y1="158.762" x2="194.352" y2="216.248" gradientUnits="userSpaceOnUse">
<stop stop-color="white"/>
<stop offset="0.708333" stop-color="#9DDCFF" stop-opacity="0.69"/>
</linearGradient>
<linearGradient id="paint4_linear_3_2115" x1="186.419" y1="139.262" x2="217.962" y2="239.343" gradientUnits="userSpaceOnUse">
<stop stop-color="white"/>
<stop offset="0.713542" stop-color="#85C6EC" stop-opacity="0.71"/>
</linearGradient>
</defs>
</svg>
