<svg width="450" height="300" viewBox="0 0 450 300" fill="none" xmlns="http://www.w3.org/2000/svg">
<mask id="path-1-outside-1_4_2280" maskUnits="userSpaceOnUse" x="167" y="70" width="125" height="139" fill="black">
<rect fill="white" x="167" y="70" width="125" height="139"/>
<path fill-rule="evenodd" clip-rule="evenodd" d="M287 183.223C285.417 183.335 283.818 183.392 282.206 183.392C245.257 183.392 215.303 153.358 215.303 116.308C215.303 99.8007 221.249 84.6862 231.11 73C196.397 75.4642 169 104.482 169 139.915C169 176.965 198.954 207 235.904 207C256.391 207 274.728 197.766 287 183.223Z"/>
</mask>
<path fill-rule="evenodd" clip-rule="evenodd" d="M287 183.223C285.417 183.335 283.818 183.392 282.206 183.392C245.257 183.392 215.303 153.358 215.303 116.308C215.303 99.8007 221.249 84.6862 231.11 73C196.397 75.4642 169 104.482 169 139.915C169 176.965 198.954 207 235.904 207C256.391 207 274.728 197.766 287 183.223Z" fill="url(#paint0_linear_4_2280)"/>
<path d="M287 183.223L288.529 184.513L291.583 180.892L286.858 181.228L287 183.223ZM231.11 73L232.638 74.2898L235.693 70.6696L230.968 71.005L231.11 73ZM286.858 181.228C285.322 181.337 283.771 181.392 282.206 181.392V185.392C283.865 185.392 285.511 185.334 287.142 185.218L286.858 181.228ZM282.206 181.392C246.366 181.392 217.303 152.258 217.303 116.308H213.303C213.303 154.457 244.147 185.392 282.206 185.392V181.392ZM217.303 116.308C217.303 100.29 223.071 85.6283 232.638 74.2898L229.581 71.7102C219.427 83.7441 213.303 99.3117 213.303 116.308H217.303ZM171 139.915C171 105.534 197.583 77.385 231.252 74.995L230.968 71.005C195.212 73.5433 167 103.429 167 139.915H171ZM235.904 205C200.063 205 171 175.866 171 139.915H167C167 178.065 197.844 209 235.904 209V205ZM285.471 181.933C273.562 196.046 255.776 205 235.904 205V209C257.006 209 275.893 199.486 288.529 184.513L285.471 181.933Z" fill="url(#paint1_linear_4_2280)" mask="url(#path-1-outside-1_4_2280)"/>
<path d="M141.737 83.7458L137.749 75.9579C136.413 73.3474 132.587 73.3474 131.251 75.9579L127.263 83.7458C127.033 84.1945 126.579 84.5221 126.033 84.5985L117.117 85.8473C114.181 86.2585 112.9 89.8129 115.113 91.892L121.565 97.9541C121.944 98.3105 122.108 98.812 122.022 99.2948L120.498 107.855C119.971 110.82 123.162 112.908 125.752 111.595L133.728 107.554C134.21 107.309 134.79 107.309 135.272 107.554L143.248 111.595C145.838 112.908 149.029 110.82 148.502 107.855L146.978 99.2948C146.892 98.812 147.056 98.3105 147.435 97.9541L153.887 91.892C156.1 89.8129 154.819 86.2585 151.883 85.8473L142.967 84.5985C142.421 84.5221 141.967 84.1945 141.737 83.7458Z" fill="url(#paint2_linear_4_2280)" stroke="url(#paint3_linear_4_2280)" stroke-width="2"/>
<path d="M297.444 137.229L294.274 130.739C293.141 128.42 289.859 128.42 288.726 130.739L285.556 137.229C285.395 137.559 285.086 137.783 284.735 137.835L277.648 138.875C275.101 139.249 274.113 142.39 275.932 144.182L281.061 149.234C281.319 149.488 281.44 149.859 281.378 150.224L280.167 157.357C279.739 159.878 282.368 161.851 284.657 160.636L290.996 157.268C291.312 157.1 291.688 157.1 292.004 157.268L298.343 160.636C300.632 161.851 303.261 159.878 302.833 157.357L301.622 150.224C301.56 149.859 301.681 149.488 301.939 149.234L307.068 144.182C308.887 142.39 307.899 139.249 305.352 138.875L298.265 137.835C297.914 137.783 297.605 137.559 297.444 137.229Z" fill="url(#paint4_linear_4_2280)" stroke="url(#paint5_linear_4_2280)" stroke-width="2"/>
<g filter="url(#filter0_bd_4_2280)">
<mask id="path-5-outside-2_4_2280" maskUnits="userSpaceOnUse" x="140" y="157" width="99" height="61" fill="black">
<rect fill="white" x="140" y="157" width="99" height="61"/>
<path fill-rule="evenodd" clip-rule="evenodd" d="M210.559 185.141C210.559 186.053 210.512 186.955 210.421 187.843C213.239 185.396 216.919 183.914 220.946 183.914C229.813 183.914 237 191.097 237 199.957C237 208.817 229.813 216 220.946 216H158.542C158.537 216 158.531 216 158.526 216C158.52 216 158.515 216 158.51 216H158.431V216C149.348 215.949 142 208.575 142 199.485C142 190.429 149.294 183.075 158.331 182.971C159.435 169.549 170.685 159 184.401 159C198.847 159 210.559 170.704 210.559 185.141Z"/>
</mask>
<path fill-rule="evenodd" clip-rule="evenodd" d="M210.559 185.141C210.559 186.053 210.512 186.955 210.421 187.843C213.239 185.396 216.919 183.914 220.946 183.914C229.813 183.914 237 191.097 237 199.957C237 208.817 229.813 216 220.946 216H158.542C158.537 216 158.531 216 158.526 216C158.52 216 158.515 216 158.51 216H158.431V216C149.348 215.949 142 208.575 142 199.485C142 190.429 149.294 183.075 158.331 182.971C159.435 169.549 170.685 159 184.401 159C198.847 159 210.559 170.704 210.559 185.141Z" fill="url(#paint6_linear_4_2280)" shape-rendering="crispEdges"/>
<path d="M210.421 187.843L208.431 187.639L207.914 192.669L211.732 189.353L210.421 187.843ZM158.431 216H156.431V218H158.431V216ZM158.431 216H160.431V214.011L158.443 214L158.431 216ZM158.331 182.971L158.354 184.971L160.175 184.95L160.325 183.135L158.331 182.971ZM212.41 188.048C212.508 187.091 212.559 186.122 212.559 185.141H208.559C208.559 185.985 208.515 186.818 208.431 187.639L212.41 188.048ZM220.946 181.914C216.42 181.914 212.277 183.582 209.109 186.333L211.732 189.353C214.2 187.21 217.419 185.914 220.946 185.914V181.914ZM239 199.957C239 189.991 230.916 181.914 220.946 181.914V185.914C228.709 185.914 235 192.202 235 199.957H239ZM220.946 218C230.916 218 239 209.923 239 199.957H235C235 207.711 228.709 214 220.946 214V218ZM220.946 214H158.542V218H220.946V214ZM158.526 218C158.529 218 158.533 218 158.535 218C158.538 218 158.54 218 158.542 218V214C158.538 214 158.535 214 158.532 214C158.53 214 158.528 214 158.526 214V218ZM158.51 218C158.512 218 158.514 218 158.516 218C158.519 218 158.522 218 158.526 218V214C158.524 214 158.522 214 158.519 214C158.517 214 158.513 214 158.51 214V218ZM158.51 214H158.431V218H158.51V214ZM160.431 216V216H156.431V216H160.431ZM140 199.485C140 209.677 148.238 217.943 158.42 218L158.443 214C150.457 213.955 144 207.472 144 199.485H140ZM158.308 180.971C148.178 181.088 140 189.331 140 199.485H144C144 191.527 150.41 185.063 158.354 184.971L158.308 180.971ZM184.401 157C169.636 157 157.526 168.355 156.338 182.807L160.325 183.135C161.343 170.743 171.733 161 184.401 161V157ZM212.559 185.141C212.559 169.598 199.951 157 184.401 157V161C197.744 161 208.559 171.809 208.559 185.141H212.559Z" fill="url(#paint7_linear_4_2280)" mask="url(#path-5-outside-2_4_2280)"/>
</g>
<g filter="url(#filter1_bd_4_2280)">
<mask id="path-7-outside-3_4_2280" maskUnits="userSpaceOnUse" x="139" y="156.993" width="100" height="62" fill="black">
<rect fill="white" x="139" y="156.993" width="100" height="62"/>
<path fill-rule="evenodd" clip-rule="evenodd" d="M210.28 185.351C210.28 186.271 210.233 187.181 210.141 188.076C212.989 185.608 216.708 184.114 220.777 184.114C229.737 184.114 237 191.357 237 200.291C237 209.225 229.737 216.467 220.777 216.467C220.744 216.467 220.711 216.467 220.678 216.467H157.781C157.754 216.467 157.727 216.467 157.7 216.467C157.673 216.467 157.645 216.467 157.618 216.467H157.604V216.467C148.425 216.416 141 208.98 141 199.815C141 190.684 148.371 183.269 157.503 183.164C158.618 169.63 169.987 158.993 183.847 158.993C198.446 158.993 210.28 170.794 210.28 185.351Z"/>
</mask>
<path fill-rule="evenodd" clip-rule="evenodd" d="M210.28 185.351C210.28 186.271 210.233 187.181 210.141 188.076C212.989 185.608 216.708 184.114 220.777 184.114C229.737 184.114 237 191.357 237 200.291C237 209.225 229.737 216.467 220.777 216.467C220.744 216.467 220.711 216.467 220.678 216.467H157.781C157.754 216.467 157.727 216.467 157.7 216.467C157.673 216.467 157.645 216.467 157.618 216.467H157.604V216.467C148.425 216.416 141 208.98 141 199.815C141 190.684 148.371 183.269 157.503 183.164C158.618 169.63 169.987 158.993 183.847 158.993C198.446 158.993 210.28 170.794 210.28 185.351Z" fill="url(#paint8_linear_4_2280)" shape-rendering="crispEdges"/>
<path d="M210.141 188.076L208.151 187.872L207.634 192.895L211.451 189.588L210.141 188.076ZM220.678 216.467L220.69 214.467H220.678V216.467ZM157.781 216.467V214.467L157.772 214.467L157.781 216.467ZM157.618 216.467L157.628 214.467H157.618V216.467ZM157.604 216.467H155.604V218.467H157.604V216.467ZM157.604 216.467H159.604V214.478L157.616 214.467L157.604 216.467ZM157.503 183.164L157.526 185.164L159.347 185.143L159.497 183.328L157.503 183.164ZM212.13 188.281C212.23 187.318 212.28 186.34 212.28 185.351H208.28C208.28 186.203 208.237 187.044 208.151 187.872L212.13 188.281ZM220.777 182.114C216.209 182.114 212.029 183.794 208.831 186.565L211.451 189.588C213.948 187.423 217.207 186.114 220.777 186.114V182.114ZM239 200.291C239 190.247 230.836 182.114 220.777 182.114V186.114C228.638 186.114 235 192.467 235 200.291H239ZM220.777 218.467C230.836 218.467 239 210.335 239 200.291H235C235 208.115 228.638 214.467 220.777 214.467V218.467ZM220.666 218.467C220.703 218.467 220.74 218.467 220.777 218.467V214.467C220.748 214.467 220.719 214.467 220.69 214.467L220.666 218.467ZM220.678 214.467H157.781V218.467H220.678V214.467ZM157.7 218.467C157.73 218.467 157.761 218.467 157.791 218.467L157.772 214.467C157.748 214.467 157.724 214.467 157.7 214.467V218.467ZM157.609 218.467C157.639 218.467 157.669 218.467 157.7 218.467V214.467C157.676 214.467 157.652 214.467 157.628 214.467L157.609 218.467ZM157.618 214.467H157.604V218.467H157.618V214.467ZM159.604 216.467V216.467H155.604V216.467H159.604ZM139 199.815C139 210.086 147.32 218.409 157.593 218.467L157.616 214.467C149.531 214.422 143 207.874 143 199.815H139ZM157.48 181.164C147.259 181.282 139 189.581 139 199.815H143C143 191.786 149.483 185.256 157.526 185.164L157.48 181.164ZM183.847 156.993C168.942 156.993 156.71 168.432 155.51 183L159.497 183.328C160.526 170.828 171.032 160.993 183.847 160.993V156.993ZM212.28 185.351C212.28 169.684 199.545 156.993 183.847 156.993V160.993C197.347 160.993 208.28 171.904 208.28 185.351H212.28Z" fill="url(#paint9_linear_4_2280)" mask="url(#path-7-outside-3_4_2280)"/>
</g>
<defs>
<filter id="filter0_bd_4_2280" x="125" y="146" width="129" height="91" filterUnits="userSpaceOnUse" color-interpolation-filters="sRGB">
<feFlood flood-opacity="0" result="BackgroundImageFix"/>
<feGaussianBlur in="BackgroundImageFix" stdDeviation="5"/>
<feComposite in2="SourceAlpha" operator="in" result="effect1_backgroundBlur_4_2280"/>
<feColorMatrix in="SourceAlpha" type="matrix" values="0 0 0 0 0 0 0 0 0 0 0 0 0 0 0 0 0 0 127 0" result="hardAlpha"/>
<feOffset dy="4"/>
<feGaussianBlur stdDeviation="7.5"/>
<feComposite in2="hardAlpha" operator="out"/>
<feColorMatrix type="matrix" values="0 0 0 0 0 0 0 0 0 0 0 0 0 0 0 0 0 0 0.1 0"/>
<feBlend mode="normal" in2="effect1_backgroundBlur_4_2280" result="effect2_dropShadow_4_2280"/>
<feBlend mode="normal" in="SourceGraphic" in2="effect2_dropShadow_4_2280" result="shape"/>
</filter>
<filter id="filter1_bd_4_2280" x="124" y="145.993" width="130" height="91.4739" filterUnits="userSpaceOnUse" color-interpolation-filters="sRGB">
<feFlood flood-opacity="0" result="BackgroundImageFix"/>
<feGaussianBlur in="BackgroundImageFix" stdDeviation="5"/>
<feComposite in2="SourceAlpha" operator="in" result="effect1_backgroundBlur_4_2280"/>
<feColorMatrix in="SourceAlpha" type="matrix" values="0 0 0 0 0 0 0 0 0 0 0 0 0 0 0 0 0 0 127 0" result="hardAlpha"/>
<feOffset dy="4"/>
<feGaussianBlur stdDeviation="7.5"/>
<feComposite in2="hardAlpha" operator="out"/>
<feColorMatrix type="matrix" values="0 0 0 0 0 0 0 0 0 0 0 0 0 0 0 0 0 0 0.1 0"/>
<feBlend mode="normal" in2="effect1_backgroundBlur_4_2280" result="effect2_dropShadow_4_2280"/>
<feBlend mode="normal" in="SourceGraphic" in2="effect2_dropShadow_4_2280" result="shape"/>
</filter>
<linearGradient id="paint0_linear_4_2280" x1="240.416" y1="115.717" x2="212.024" y2="206.957" gradientUnits="userSpaceOnUse">
<stop stop-color="#FFEFB8"/>
<stop offset="1" stop-color="#FFD600"/>
</linearGradient>
<linearGradient id="paint1_linear_4_2280" x1="163.31" y1="52.5673" x2="267.518" y2="230.165" gradientUnits="userSpaceOnUse">
<stop stop-color="#FFF2AF"/>
<stop offset="1" stop-color="#CEBA00"/>
</linearGradient>
<linearGradient id="paint2_linear_4_2280" x1="139.818" y1="86.1429" x2="125.489" y2="111.419" gradientUnits="userSpaceOnUse">
<stop stop-color="#FFF59F"/>
<stop offset="1" stop-color="#EDD500"/>
</linearGradient>
<linearGradient id="paint3_linear_4_2280" x1="119.875" y1="72.4286" x2="145.926" y2="124.57" gradientUnits="userSpaceOnUse">
<stop stop-color="#FFF6A6"/>
<stop offset="1" stop-color="#D1BC00"/>
</linearGradient>
<linearGradient id="paint4_linear_4_2280" x1="295.727" y1="139.286" x2="283.504" y2="159.854" gradientUnits="userSpaceOnUse">
<stop stop-color="#FFF59F"/>
<stop offset="1" stop-color="#EDD500"/>
</linearGradient>
<linearGradient id="paint5_linear_4_2280" x1="279.875" y1="127.857" x2="302.193" y2="170.464" gradientUnits="userSpaceOnUse">
<stop stop-color="#FFF6A6"/>
<stop offset="1" stop-color="#D1BC00"/>
</linearGradient>
<linearGradient id="paint6_linear_4_2280" x1="171.527" y1="158.762" x2="194.352" y2="216.248" gradientUnits="userSpaceOnUse">
<stop stop-color="white"/>
<stop offset="0.708333" stop-color="#9DDCFF" stop-opacity="0.69"/>
</linearGradient>
<linearGradient id="paint7_linear_4_2280" x1="186.419" y1="139.262" x2="217.962" y2="239.343" gradientUnits="userSpaceOnUse">
<stop stop-color="white"/>
<stop offset="0.713542" stop-color="#85C6EC" stop-opacity="0.71"/>
</linearGradient>
<linearGradient id="paint8_linear_4_2280" x1="171.459" y1="164.913" x2="201.783" y2="214.449" gradientUnits="userSpaceOnUse">
<stop stop-color="#3C63C6"/>
<stop offset="0.828125" stop-color="#1A6DBA" stop-opacity="0.45"/>
</linearGradient>
<linearGradient id="paint9_linear_4_2280" x1="202.483" y1="235.569" x2="172.759" y2="151.492" gradientUnits="userSpaceOnUse">
<stop stop-color="#0066FF"/>
<stop offset="1" stop-color="#00378A" stop-opacity="0.34"/>
</linearGradient>
</defs>
</svg>
