<svg width="450" height="300" viewBox="0 0 450 300" fill="none" xmlns="http://www.w3.org/2000/svg">
<circle cx="282" cy="101" r="55.7826" fill="url(#paint0_linear_1_2109)" stroke="url(#paint1_linear_1_2109)" stroke-width="2"/>
<path fill-rule="evenodd" clip-rule="evenodd" d="M282 11C279.298 11 277.109 13.1899 277.109 15.8913V31.5435C277.109 34.2449 279.298 36.4348 282 36.4348C284.701 36.4348 286.891 34.2449 286.891 31.5435V15.8913C286.891 13.1899 284.701 11 282 11ZM282 165.565C279.298 165.565 277.109 167.755 277.109 170.457V186.109C277.109 188.81 279.298 191 282 191C284.701 191 286.891 188.81 286.891 186.109V170.457C286.891 167.755 284.701 165.565 282 165.565ZM320.318 24.848C321.669 22.5086 324.66 21.707 327 23.0577C329.339 24.4084 330.141 27.3999 328.79 29.7393L320.964 43.2945C319.613 45.634 316.622 46.4355 314.283 45.0848C311.943 43.7341 311.141 40.7427 312.492 38.4032L320.318 24.848ZM249.717 156.915C247.378 155.564 244.386 156.366 243.036 158.705L235.21 172.261C233.859 174.6 234.66 177.592 237 178.942C239.339 180.293 242.331 179.491 243.682 177.152L251.508 163.597C252.858 161.257 252.057 158.266 249.717 156.915ZM353.261 54.2096C355.6 52.8589 358.592 53.6605 359.942 56C361.293 58.3394 360.491 61.3309 358.152 62.6816L344.597 70.5077C342.257 71.8584 339.266 71.0568 337.915 68.7174C336.564 66.3779 337.366 63.3864 339.705 62.0357L353.261 54.2096ZM226.085 133.283C224.734 130.943 221.743 130.142 219.403 131.492L205.848 139.318C203.509 140.669 202.707 143.66 204.058 146C205.408 148.339 208.4 149.141 210.739 147.79L224.295 139.964C226.634 138.614 227.436 135.622 226.085 133.283ZM367.109 96.1087C369.81 96.1087 372 98.2986 372 101C372 103.701 369.81 105.891 367.109 105.891H351.456C348.755 105.891 346.565 103.701 346.565 101C346.565 98.2986 348.755 96.1087 351.456 96.1087H367.109ZM217.435 101C217.435 98.2986 215.245 96.1087 212.543 96.1087H196.891C194.19 96.1087 192 98.2986 192 101C192 103.701 194.19 105.891 196.891 105.891H212.543C215.245 105.891 217.435 103.701 217.435 101ZM358.152 139.318C360.491 140.669 361.293 143.66 359.942 146C358.592 148.339 355.6 149.141 353.261 147.79L339.705 139.964C337.366 138.614 336.564 135.622 337.915 133.283C339.266 130.943 342.257 130.142 344.597 131.492L358.152 139.318ZM226.085 68.7174C227.436 66.3779 226.634 63.3864 224.295 62.0357L210.739 54.2096C208.4 52.8589 205.408 53.6605 204.058 56C202.707 58.3394 203.509 61.3309 205.848 62.6816L219.403 70.5077C221.743 71.8584 224.734 71.0568 226.085 68.7174ZM328.79 172.261C330.141 174.6 329.339 177.592 327 178.942C324.66 180.293 321.669 179.491 320.318 177.152L312.492 163.597C311.142 161.257 311.943 158.266 314.283 156.915C316.622 155.564 319.613 156.366 320.964 158.705L328.79 172.261ZM249.717 45.0848C252.057 43.7341 252.858 40.7426 251.508 38.4032L243.682 24.848C242.331 22.5085 239.339 21.7069 237 23.0576C234.66 24.4083 233.859 27.3998 235.21 29.7393L243.036 43.2945C244.386 45.6339 247.378 46.4355 249.717 45.0848Z" fill="url(#paint2_linear_1_2109)"/>
<rect x="123.766" y="252.774" width="12.1935" height="33.8707" rx="6.09673" transform="rotate(15 123.766 252.774)" fill="url(#paint3_linear_1_2109)"/>
<rect x="163.278" y="252.774" width="12.1935" height="33.8707" rx="6.09673" transform="rotate(15 163.278 252.774)" fill="url(#paint4_linear_1_2109)"/>
<rect x="202.79" y="252.774" width="12.1935" height="33.8707" rx="6.09673" transform="rotate(15 202.79 252.774)" fill="url(#paint5_linear_1_2109)"/>
<rect x="242.302" y="252.774" width="12.1935" height="33.8707" rx="6.09673" transform="rotate(15 242.302 252.774)" fill="url(#paint6_linear_1_2109)"/>
<rect x="145.444" y="204" width="12.1935" height="33.8707" rx="6.09673" transform="rotate(15 145.444 204)" fill="url(#paint7_linear_1_2109)"/>
<rect x="184.956" y="204" width="12.1935" height="33.8707" rx="6.09673" transform="rotate(15 184.956 204)" fill="url(#paint8_linear_1_2109)"/>
<rect x="224.468" y="204" width="12.1935" height="33.8707" rx="6.09673" transform="rotate(15 224.468 204)" fill="url(#paint9_linear_1_2109)"/>
<rect x="263.98" y="204" width="12.1935" height="33.8707" rx="6.09673" transform="rotate(15 263.98 204)" fill="url(#paint10_linear_1_2109)"/>
<g filter="url(#filter0_bd_1_2109)">
<mask id="path-11-outside-1_1_2109" maskUnits="userSpaceOnUse" x="77" y="69" width="255" height="155" fill="black">
<rect fill="white" x="77" y="69" width="255" height="155"/>
<path fill-rule="evenodd" clip-rule="evenodd" d="M259.882 140.014C259.882 142.423 259.758 144.804 259.517 147.149C266.953 140.687 276.664 136.775 287.288 136.775C310.68 136.775 329.643 155.738 329.643 179.13C329.643 202.523 310.68 221.486 287.288 221.486H122.638C122.626 221.486 122.613 221.486 122.601 221.486C122.589 221.486 122.576 221.486 122.564 221.486H122.352V221.485C98.3863 221.351 79 201.882 79 177.885C79 153.976 98.2441 134.562 122.088 134.287C124.999 98.8508 154.681 71 190.868 71C228.983 71 259.882 101.899 259.882 140.014Z"/>
</mask>
<path fill-rule="evenodd" clip-rule="evenodd" d="M259.882 140.014C259.882 142.423 259.758 144.804 259.517 147.149C266.953 140.687 276.664 136.775 287.288 136.775C310.68 136.775 329.643 155.738 329.643 179.13C329.643 202.523 310.68 221.486 287.288 221.486H122.638C122.626 221.486 122.613 221.486 122.601 221.486C122.589 221.486 122.576 221.486 122.564 221.486H122.352V221.485C98.3863 221.351 79 201.882 79 177.885C79 153.976 98.2441 134.562 122.088 134.287C124.999 98.8508 154.681 71 190.868 71C228.983 71 259.882 101.899 259.882 140.014Z" fill="url(#paint11_linear_1_2109)" shape-rendering="crispEdges"/>
<path d="M259.517 147.149L257.528 146.945L257.011 151.977L260.829 148.659L259.517 147.149ZM122.352 221.486H120.352V223.486H122.352V221.486ZM122.352 221.485H124.352V219.496L122.363 219.485L122.352 221.485ZM122.088 134.287L122.111 136.287L123.932 136.266L124.081 134.45L122.088 134.287ZM261.507 147.353C261.755 144.94 261.882 142.492 261.882 140.014H257.882C257.882 142.355 257.762 144.667 257.528 146.945L261.507 147.353ZM287.288 134.775C276.163 134.775 265.991 138.873 258.206 145.639L260.829 148.659C267.915 142.501 277.164 138.775 287.288 138.775V134.775ZM331.643 179.13C331.643 154.634 311.785 134.775 287.288 134.775V138.775C309.576 138.775 327.643 156.843 327.643 179.13H331.643ZM287.288 223.486C311.785 223.486 331.643 203.627 331.643 179.13H327.643C327.643 201.418 309.576 219.486 287.288 219.486V223.486ZM287.288 219.486H122.638V223.486H287.288V219.486ZM122.601 223.486C122.608 223.486 122.615 223.486 122.621 223.486C122.627 223.486 122.632 223.486 122.638 223.486V219.486C122.631 219.486 122.624 219.486 122.618 219.486C122.612 219.486 122.606 219.486 122.601 219.486V223.486ZM122.564 223.486C122.57 223.486 122.575 223.486 122.581 223.486C122.587 223.486 122.594 223.486 122.601 223.486V219.486C122.596 219.486 122.59 219.486 122.584 219.486C122.578 219.486 122.571 219.486 122.564 219.486V223.486ZM122.564 219.486H122.352V223.486H122.564V219.486ZM124.352 221.486V221.485H120.352V221.486H124.352ZM77 177.885C77 202.983 97.2756 223.345 122.341 223.485L122.363 219.485C99.4971 219.357 81 200.781 81 177.885H77ZM122.065 132.287C97.1268 132.574 77 152.879 77 177.885H81C81 155.073 99.3614 136.549 122.111 136.287L122.065 132.287ZM190.868 69C153.631 69 123.09 97.6581 120.095 134.123L124.081 134.45C126.908 100.044 155.731 73 190.868 73V69ZM261.882 140.014C261.882 100.794 230.088 69 190.868 69V73C227.879 73 257.882 103.003 257.882 140.014H261.882Z" fill="url(#paint12_linear_1_2109)" mask="url(#path-11-outside-1_1_2109)"/>
</g>
<defs>
<filter id="filter0_bd_1_2109" x="62" y="58" width="284.643" height="184.486" filterUnits="userSpaceOnUse" color-interpolation-filters="sRGB">
<feFlood flood-opacity="0" result="BackgroundImageFix"/>
<feGaussianBlur in="BackgroundImageFix" stdDeviation="5"/>
<feComposite in2="SourceAlpha" operator="in" result="effect1_backgroundBlur_1_2109"/>
<feColorMatrix in="SourceAlpha" type="matrix" values="0 0 0 0 0 0 0 0 0 0 0 0 0 0 0 0 0 0 127 0" result="hardAlpha"/>
<feOffset dy="4"/>
<feGaussianBlur stdDeviation="7.5"/>
<feComposite in2="hardAlpha" operator="out"/>
<feColorMatrix type="matrix" values="0 0 0 0 0 0 0 0 0 0 0 0 0 0 0 0 0 0 0.1 0"/>
<feBlend mode="normal" in2="effect1_backgroundBlur_1_2109" result="effect2_dropShadow_1_2109"/>
<feBlend mode="normal" in="SourceGraphic" in2="effect2_dropShadow_1_2109" result="shape"/>
</filter>
<linearGradient id="paint0_linear_1_2109" x1="312.815" y1="54.0435" x2="263.093" y2="156.21" gradientUnits="userSpaceOnUse">
<stop offset="0.182844" stop-color="#FFE600"/>
<stop offset="0.980542" stop-color="#F09000"/>
</linearGradient>
<linearGradient id="paint1_linear_1_2109" x1="254.017" y1="33.6891" x2="331.16" y2="218.983" gradientUnits="userSpaceOnUse">
<stop stop-color="#FFE600"/>
<stop offset="1" stop-color="#9C8D00"/>
</linearGradient>
<linearGradient id="paint2_linear_1_2109" x1="348.032" y1="34.4782" x2="214.5" y2="191" gradientUnits="userSpaceOnUse">
<stop stop-color="#FFE600"/>
<stop offset="1" stop-color="#AA9900"/>
</linearGradient>
<linearGradient id="paint3_linear_1_2109" x1="125.121" y1="282.58" x2="135.96" y2="256.838" gradientUnits="userSpaceOnUse">
<stop stop-color="#3981EE"/>
<stop offset="1" stop-color="#92BDFF"/>
</linearGradient>
<linearGradient id="paint4_linear_1_2109" x1="164.633" y1="282.58" x2="175.472" y2="256.838" gradientUnits="userSpaceOnUse">
<stop stop-color="#3981EE"/>
<stop offset="1" stop-color="#92BDFF"/>
</linearGradient>
<linearGradient id="paint5_linear_1_2109" x1="204.145" y1="282.58" x2="214.984" y2="256.838" gradientUnits="userSpaceOnUse">
<stop stop-color="#3981EE"/>
<stop offset="1" stop-color="#92BDFF"/>
</linearGradient>
<linearGradient id="paint6_linear_1_2109" x1="243.657" y1="282.58" x2="254.496" y2="256.838" gradientUnits="userSpaceOnUse">
<stop stop-color="#3981EE"/>
<stop offset="1" stop-color="#92BDFF"/>
</linearGradient>
<linearGradient id="paint7_linear_1_2109" x1="146.798" y1="233.806" x2="157.637" y2="208.064" gradientUnits="userSpaceOnUse">
<stop stop-color="#3981EE"/>
<stop offset="1" stop-color="#92BDFF"/>
</linearGradient>
<linearGradient id="paint8_linear_1_2109" x1="186.31" y1="233.806" x2="197.149" y2="208.064" gradientUnits="userSpaceOnUse">
<stop stop-color="#3981EE"/>
<stop offset="1" stop-color="#92BDFF"/>
</linearGradient>
<linearGradient id="paint9_linear_1_2109" x1="225.822" y1="233.806" x2="236.661" y2="208.064" gradientUnits="userSpaceOnUse">
<stop stop-color="#3981EE"/>
<stop offset="1" stop-color="#92BDFF"/>
</linearGradient>
<linearGradient id="paint10_linear_1_2109" x1="265.334" y1="233.806" x2="276.173" y2="208.064" gradientUnits="userSpaceOnUse">
<stop stop-color="#3981EE"/>
<stop offset="1" stop-color="#92BDFF"/>
</linearGradient>
<linearGradient id="paint11_linear_1_2109" x1="156.903" y1="70.3724" x2="217.193" y2="222.113" gradientUnits="userSpaceOnUse">
<stop stop-color="white"/>
<stop offset="0.708333" stop-color="#9DDCFF" stop-opacity="0.69"/>
</linearGradient>
<linearGradient id="paint12_linear_1_2109" x1="196.193" y1="18.8889" x2="279.515" y2="283.081" gradientUnits="userSpaceOnUse">
<stop stop-color="white"/>
<stop offset="0.713542" stop-color="#85C6EC" stop-opacity="0.71"/>
</linearGradient>
</defs>
</svg>
