<svg width="450" height="300" viewBox="0 0 450 300" fill="none" xmlns="http://www.w3.org/2000/svg">
<mask id="path-1-outside-1_4_2276" maskUnits="userSpaceOnUse" x="207" y="16" width="137" height="153" fill="black">
<rect fill="white" x="207" y="16" width="137" height="153"/>
<path fill-rule="evenodd" clip-rule="evenodd" d="M339 140.739C337.256 140.863 335.495 140.926 333.719 140.926C293.011 140.926 260.012 107.753 260.012 66.8324C260.012 48.6008 266.562 31.9071 277.426 19C239.184 21.7216 209 53.7706 209 92.9064C209 133.827 242 167 282.707 167C305.278 167 325.48 156.802 339 140.739Z"/>
</mask>
<path fill-rule="evenodd" clip-rule="evenodd" d="M339 140.739C337.256 140.863 335.495 140.926 333.719 140.926C293.011 140.926 260.012 107.753 260.012 66.8324C260.012 48.6008 266.562 31.9071 277.426 19C239.184 21.7216 209 53.7706 209 92.9064C209 133.827 242 167 282.707 167C305.278 167 325.48 156.802 339 140.739Z" fill="url(#paint0_linear_4_2276)"/>
<path d="M339 140.739L340.53 142.027L343.576 138.408L338.858 138.744L339 140.739ZM277.426 19L278.956 20.2879L282.002 16.6693L277.284 17.005L277.426 19ZM338.858 138.744C337.161 138.865 335.447 138.926 333.719 138.926V142.926C335.542 142.926 337.35 142.861 339.142 142.734L338.858 138.744ZM333.719 138.926C294.126 138.926 262.012 106.658 262.012 66.8324H258.012C258.012 108.848 291.897 142.926 333.719 142.926V138.926ZM262.012 66.8324C262.012 49.0883 268.385 32.8472 278.956 20.2879L275.896 17.7121C264.739 30.9671 258.012 48.1132 258.012 66.8324H262.012ZM211 92.9064C211 54.8188 240.374 23.642 277.568 20.995L277.284 17.005C237.994 19.8013 207 52.7225 207 92.9064H211ZM282.707 165C243.114 165 211 132.732 211 92.9064H207C207 134.922 240.885 169 282.707 169V165ZM337.47 139.451C324.312 155.083 304.661 165 282.707 165V169C305.895 169 326.647 158.52 340.53 142.027L337.47 139.451Z" fill="url(#paint1_linear_4_2276)" mask="url(#path-1-outside-1_4_2276)"/>
<path d="M185.079 21.7551L181.194 13.9672C179.885 11.3443 176.115 11.3443 174.806 13.9672L170.921 21.7551C170.696 22.207 170.257 22.5252 169.743 22.599L161.055 23.8479C158.145 24.2663 156.951 27.8276 159.083 29.8831L165.369 35.9452C165.736 36.299 165.901 36.8054 165.816 37.2991L164.331 45.8589C163.827 48.7704 166.905 50.9387 169.498 49.5903L177.268 45.5489C177.726 45.3109 178.274 45.3109 178.732 45.5489L186.502 49.5903C189.095 50.9387 192.173 48.7704 191.669 45.8589L190.184 37.2991C190.099 36.8054 190.264 36.299 190.631 35.9452L196.917 29.8831C199.049 27.8276 197.855 24.2663 194.945 23.8479L186.257 22.599C185.743 22.5252 185.304 22.207 185.079 21.7551Z" fill="url(#paint2_linear_4_2276)" stroke="url(#paint3_linear_4_2276)" stroke-width="2"/>
<path d="M348.781 81.9731L345.713 75.6995C344.605 73.4335 341.395 73.4335 340.287 75.6995L337.219 81.9731C337.068 82.2822 336.779 82.4921 336.449 82.5405L329.59 83.5465C327.1 83.9118 326.131 86.9812 327.912 88.7332L332.875 93.6165C333.118 93.8553 333.231 94.2023 333.173 94.5444L332.001 101.44C331.582 103.905 334.155 105.831 336.392 104.644L342.527 101.389C342.823 101.231 343.177 101.231 343.473 101.389L349.608 104.644C351.845 105.831 354.418 103.905 353.999 101.44L352.827 94.5444C352.769 94.2023 352.882 93.8553 353.125 93.6165L358.088 88.7332C359.869 86.9813 358.9 83.9118 356.41 83.5465L349.551 82.5405C349.221 82.4921 348.932 82.2822 348.781 81.9731Z" fill="url(#paint4_linear_4_2276)" stroke="url(#paint5_linear_4_2276)" stroke-width="2"/>
<rect x="123.766" y="252.774" width="12.1935" height="33.8707" rx="6.09673" transform="rotate(15 123.766 252.774)" fill="url(#paint6_linear_4_2276)"/>
<rect x="163.278" y="252.774" width="12.1935" height="33.8707" rx="6.09673" transform="rotate(15 163.278 252.774)" fill="url(#paint7_linear_4_2276)"/>
<rect x="202.79" y="252.774" width="12.1935" height="33.8707" rx="6.09673" transform="rotate(15 202.79 252.774)" fill="url(#paint8_linear_4_2276)"/>
<rect x="242.302" y="252.774" width="12.1935" height="33.8707" rx="6.09673" transform="rotate(15 242.302 252.774)" fill="url(#paint9_linear_4_2276)"/>
<rect x="145.444" y="204" width="12.1935" height="33.8707" rx="6.09673" transform="rotate(15 145.444 204)" fill="url(#paint10_linear_4_2276)"/>
<rect x="184.956" y="204" width="12.1935" height="33.8707" rx="6.09673" transform="rotate(15 184.956 204)" fill="url(#paint11_linear_4_2276)"/>
<rect x="224.468" y="204" width="12.1935" height="33.8707" rx="6.09673" transform="rotate(15 224.468 204)" fill="url(#paint12_linear_4_2276)"/>
<rect x="263.98" y="204" width="12.1935" height="33.8707" rx="6.09673" transform="rotate(15 263.98 204)" fill="url(#paint13_linear_4_2276)"/>
<g filter="url(#filter0_bd_4_2276)">
<mask id="path-13-outside-2_4_2276" maskUnits="userSpaceOnUse" x="77" y="69" width="255" height="155" fill="black">
<rect fill="white" x="77" y="69" width="255" height="155"/>
<path fill-rule="evenodd" clip-rule="evenodd" d="M259.882 140.014C259.882 142.423 259.758 144.804 259.517 147.149C266.953 140.687 276.664 136.775 287.288 136.775C310.68 136.775 329.643 155.738 329.643 179.13C329.643 202.523 310.68 221.486 287.288 221.486H122.638C122.626 221.486 122.613 221.486 122.601 221.486C122.589 221.486 122.576 221.486 122.564 221.486H122.352V221.485C98.3863 221.351 79 201.882 79 177.885C79 153.976 98.2441 134.562 122.088 134.287C124.999 98.8508 154.681 71 190.868 71C228.983 71 259.882 101.899 259.882 140.014Z"/>
</mask>
<path fill-rule="evenodd" clip-rule="evenodd" d="M259.882 140.014C259.882 142.423 259.758 144.804 259.517 147.149C266.953 140.687 276.664 136.775 287.288 136.775C310.68 136.775 329.643 155.738 329.643 179.13C329.643 202.523 310.68 221.486 287.288 221.486H122.638C122.626 221.486 122.613 221.486 122.601 221.486C122.589 221.486 122.576 221.486 122.564 221.486H122.352V221.485C98.3863 221.351 79 201.882 79 177.885C79 153.976 98.2441 134.562 122.088 134.287C124.999 98.8508 154.681 71 190.868 71C228.983 71 259.882 101.899 259.882 140.014Z" fill="url(#paint14_linear_4_2276)" shape-rendering="crispEdges"/>
<path d="M259.517 147.149L257.528 146.945L257.011 151.977L260.829 148.659L259.517 147.149ZM122.352 221.486H120.352V223.486H122.352V221.486ZM122.352 221.485H124.352V219.496L122.363 219.485L122.352 221.485ZM122.088 134.287L122.111 136.287L123.932 136.266L124.081 134.45L122.088 134.287ZM261.507 147.353C261.755 144.94 261.882 142.492 261.882 140.014H257.882C257.882 142.355 257.762 144.667 257.528 146.945L261.507 147.353ZM287.288 134.775C276.163 134.775 265.991 138.873 258.206 145.639L260.829 148.659C267.915 142.501 277.164 138.775 287.288 138.775V134.775ZM331.643 179.13C331.643 154.634 311.785 134.775 287.288 134.775V138.775C309.576 138.775 327.643 156.843 327.643 179.13H331.643ZM287.288 223.486C311.785 223.486 331.643 203.627 331.643 179.13H327.643C327.643 201.418 309.576 219.486 287.288 219.486V223.486ZM287.288 219.486H122.638V223.486H287.288V219.486ZM122.601 223.486C122.608 223.486 122.615 223.486 122.621 223.486C122.627 223.486 122.632 223.486 122.638 223.486V219.486C122.631 219.486 122.624 219.486 122.618 219.486C122.612 219.486 122.606 219.486 122.601 219.486V223.486ZM122.564 223.486C122.57 223.486 122.575 223.486 122.581 223.486C122.587 223.486 122.594 223.486 122.601 223.486V219.486C122.596 219.486 122.59 219.486 122.584 219.486C122.578 219.486 122.571 219.486 122.564 219.486V223.486ZM122.564 219.486H122.352V223.486H122.564V219.486ZM124.352 221.486V221.485H120.352V221.486H124.352ZM77 177.885C77 202.983 97.2756 223.345 122.341 223.485L122.363 219.485C99.4971 219.357 81 200.781 81 177.885H77ZM122.065 132.287C97.1268 132.574 77 152.879 77 177.885H81C81 155.073 99.3614 136.549 122.111 136.287L122.065 132.287ZM190.868 69C153.631 69 123.09 97.6581 120.095 134.123L124.081 134.45C126.908 100.044 155.731 73 190.868 73V69ZM261.882 140.014C261.882 100.794 230.088 69 190.868 69V73C227.879 73 257.882 103.003 257.882 140.014H261.882Z" fill="url(#paint15_linear_4_2276)" mask="url(#path-13-outside-2_4_2276)"/>
</g>
<defs>
<filter id="filter0_bd_4_2276" x="62" y="58" width="284.643" height="184.486" filterUnits="userSpaceOnUse" color-interpolation-filters="sRGB">
<feFlood flood-opacity="0" result="BackgroundImageFix"/>
<feGaussianBlur in="BackgroundImageFix" stdDeviation="5"/>
<feComposite in2="SourceAlpha" operator="in" result="effect1_backgroundBlur_4_2276"/>
<feColorMatrix in="SourceAlpha" type="matrix" values="0 0 0 0 0 0 0 0 0 0 0 0 0 0 0 0 0 0 127 0" result="hardAlpha"/>
<feOffset dy="4"/>
<feGaussianBlur stdDeviation="7.5"/>
<feComposite in2="hardAlpha" operator="out"/>
<feColorMatrix type="matrix" values="0 0 0 0 0 0 0 0 0 0 0 0 0 0 0 0 0 0 0.1 0"/>
<feBlend mode="normal" in2="effect1_backgroundBlur_4_2276" result="effect2_dropShadow_4_2276"/>
<feBlend mode="normal" in="SourceGraphic" in2="effect2_dropShadow_4_2276" result="shape"/>
</filter>
<linearGradient id="paint0_linear_4_2276" x1="287.679" y1="66.1805" x2="256.255" y2="166.907" gradientUnits="userSpaceOnUse">
<stop stop-color="#FFEFB8"/>
<stop offset="1" stop-color="#FFD600"/>
</linearGradient>
<linearGradient id="paint1_linear_4_2276" x1="202.732" y1="-3.56745" x2="317.968" y2="192.332" gradientUnits="userSpaceOnUse">
<stop stop-color="#FFF2AF"/>
<stop offset="1" stop-color="#CEBA00"/>
</linearGradient>
<linearGradient id="paint2_linear_4_2276" x1="183.182" y1="24.1429" x2="168.664" y2="49.0956" gradientUnits="userSpaceOnUse">
<stop stop-color="#FFF59F"/>
<stop offset="1" stop-color="#EDD500"/>
</linearGradient>
<linearGradient id="paint3_linear_4_2276" x1="163.75" y1="10.4286" x2="190.205" y2="62.02" gradientUnits="userSpaceOnUse">
<stop stop-color="#FFF6A6"/>
<stop offset="1" stop-color="#D1BC00"/>
</linearGradient>
<linearGradient id="paint4_linear_4_2276" x1="347.091" y1="83.9762" x2="335.281" y2="103.87" gradientUnits="userSpaceOnUse">
<stop stop-color="#FFF59F"/>
<stop offset="1" stop-color="#EDD500"/>
</linearGradient>
<linearGradient id="paint5_linear_4_2276" x1="331.75" y1="72.9286" x2="353.31" y2="114.135" gradientUnits="userSpaceOnUse">
<stop stop-color="#FFF6A6"/>
<stop offset="1" stop-color="#D1BC00"/>
</linearGradient>
<linearGradient id="paint6_linear_4_2276" x1="125.121" y1="282.58" x2="135.96" y2="256.838" gradientUnits="userSpaceOnUse">
<stop stop-color="#3981EE"/>
<stop offset="1" stop-color="#92BDFF"/>
</linearGradient>
<linearGradient id="paint7_linear_4_2276" x1="164.633" y1="282.58" x2="175.472" y2="256.838" gradientUnits="userSpaceOnUse">
<stop stop-color="#3981EE"/>
<stop offset="1" stop-color="#92BDFF"/>
</linearGradient>
<linearGradient id="paint8_linear_4_2276" x1="204.145" y1="282.58" x2="214.984" y2="256.838" gradientUnits="userSpaceOnUse">
<stop stop-color="#3981EE"/>
<stop offset="1" stop-color="#92BDFF"/>
</linearGradient>
<linearGradient id="paint9_linear_4_2276" x1="243.657" y1="282.58" x2="254.496" y2="256.838" gradientUnits="userSpaceOnUse">
<stop stop-color="#3981EE"/>
<stop offset="1" stop-color="#92BDFF"/>
</linearGradient>
<linearGradient id="paint10_linear_4_2276" x1="146.798" y1="233.806" x2="157.637" y2="208.064" gradientUnits="userSpaceOnUse">
<stop stop-color="#3981EE"/>
<stop offset="1" stop-color="#92BDFF"/>
</linearGradient>
<linearGradient id="paint11_linear_4_2276" x1="186.31" y1="233.806" x2="197.149" y2="208.064" gradientUnits="userSpaceOnUse">
<stop stop-color="#3981EE"/>
<stop offset="1" stop-color="#92BDFF"/>
</linearGradient>
<linearGradient id="paint12_linear_4_2276" x1="225.822" y1="233.806" x2="236.661" y2="208.064" gradientUnits="userSpaceOnUse">
<stop stop-color="#3981EE"/>
<stop offset="1" stop-color="#92BDFF"/>
</linearGradient>
<linearGradient id="paint13_linear_4_2276" x1="265.334" y1="233.806" x2="276.173" y2="208.064" gradientUnits="userSpaceOnUse">
<stop stop-color="#3981EE"/>
<stop offset="1" stop-color="#92BDFF"/>
</linearGradient>
<linearGradient id="paint14_linear_4_2276" x1="158.525" y1="86.5" x2="238.025" y2="216" gradientUnits="userSpaceOnUse">
<stop stop-color="#508ABF"/>
<stop offset="1" stop-color="#2073A2" stop-opacity="0.53"/>
</linearGradient>
<linearGradient id="paint15_linear_4_2276" x1="239.525" y1="271.5" x2="161.525" y2="51.5" gradientUnits="userSpaceOnUse">
<stop stop-color="#4195C6"/>
<stop offset="1" stop-color="#5E8398" stop-opacity="0.56"/>
<stop offset="1" stop-color="#AFE2FF" stop-opacity="0.5"/>
</linearGradient>
</defs>
</svg>
