<svg width="450" height="300" viewBox="0 0 450 300" fill="none" xmlns="http://www.w3.org/2000/svg">
<path fill-rule="evenodd" clip-rule="evenodd" d="M224.385 46C221.932 46 219.944 47.9884 219.944 50.4413V64.3715L209.81 51.5719C208.287 49.6489 205.494 49.3243 203.571 50.8469C201.648 52.3695 201.323 55.1627 202.846 57.0858L219.944 78.6807V86.8387L209.81 74.0393C208.287 72.1163 205.494 71.7916 203.571 73.3142C201.648 74.8369 201.323 77.6301 202.846 79.5531L219.944 101.148V139.499L191.522 111.077L188.342 83.7175C188.059 81.2811 185.854 79.5355 183.418 79.8186C180.981 80.1018 179.236 82.3064 179.519 84.7429L181.403 100.959L175.634 95.1899L172.455 67.8305C172.172 65.394 169.967 63.6485 167.531 63.9316C165.094 64.2148 163.349 66.4194 163.632 68.8559L165.516 85.0718L156.971 76.5259C155.236 74.7915 152.424 74.7915 150.69 76.5259C148.955 78.2604 148.955 81.0724 150.69 82.8068L159.441 91.5585L142.857 89.6312C140.42 89.348 138.216 91.0936 137.933 93.53C137.649 95.9665 139.395 98.1711 141.831 98.4543L169.559 101.677L175.328 107.445L158.744 105.518C156.307 105.235 154.103 106.981 153.82 109.417C153.537 111.853 155.282 114.058 157.719 114.341L185.446 117.564L213.827 145.944H173.305L151.71 128.846C149.787 127.323 146.993 127.648 145.471 129.571C143.948 131.494 144.273 134.287 146.196 135.81L158.995 145.944H150.837L129.242 128.846C127.319 127.323 124.526 127.648 123.003 129.571C121.481 131.494 121.805 134.287 123.728 135.81L136.528 145.944H124.441C121.988 145.944 120 147.932 120 150.385C120 152.838 121.988 154.826 124.441 154.826H136.818L123.728 165.19C121.805 166.713 121.481 169.506 123.003 171.429C124.526 173.352 127.319 173.677 129.242 172.154L151.127 154.826H159.285L146.196 165.19C144.273 166.713 143.948 169.506 145.471 171.429C146.993 173.352 149.787 173.677 151.71 172.154L173.595 154.826H213.73L185.077 183.479L157.717 186.659C155.281 186.942 153.535 189.146 153.818 191.583C154.101 194.019 156.306 195.765 158.743 195.482L174.959 193.597L169.19 199.366L141.83 202.546C139.394 202.829 137.648 205.034 137.931 207.47C138.214 209.906 140.419 211.652 142.855 211.369L159.072 209.484L150.526 218.031C148.791 219.765 148.791 222.577 150.526 224.311C152.26 226.046 155.072 226.046 156.807 224.311L165.558 215.56L163.631 232.144C163.348 234.581 165.093 236.785 167.53 237.068C169.966 237.352 172.171 235.606 172.454 233.169L175.676 205.442L181.445 199.673L179.518 216.257C179.235 218.694 180.981 220.898 183.417 221.181C185.853 221.465 188.058 219.719 188.341 217.282L191.564 189.555L219.944 161.174V201.696L202.846 223.29C201.323 225.213 201.648 228.007 203.571 229.529C205.494 231.052 208.287 230.727 209.81 228.804L219.944 216.005V224.163L202.846 245.758C201.323 247.681 201.648 250.474 203.571 251.997C205.494 253.519 208.287 253.195 209.81 251.271L219.944 238.472V250.559C219.944 253.012 221.932 255 224.385 255C226.838 255 228.826 253.012 228.826 250.559V238.182L239.19 251.271C240.713 253.195 243.506 253.519 245.429 251.997C247.352 250.474 247.677 247.681 246.154 245.758L228.826 223.873V215.715L239.19 228.804C240.713 230.727 243.506 231.052 245.429 229.529C247.352 228.007 247.677 225.213 246.154 223.29L228.826 201.406V160.944L256.134 188.251L259.356 215.979C259.639 218.415 261.844 220.161 264.28 219.877C266.717 219.594 268.462 217.39 268.179 214.953L266.252 198.369L272.021 204.138L275.243 231.865C275.526 234.302 277.731 236.047 280.167 235.764C282.604 235.481 284.349 233.276 284.066 230.84L282.139 214.256L292.194 224.311C293.928 226.046 296.741 226.046 298.475 224.311C300.209 222.577 300.209 219.765 298.475 218.03L288.625 208.18L304.842 210.065C307.278 210.348 309.483 208.602 309.766 206.166C310.049 203.729 308.303 201.525 305.867 201.242L278.507 198.062L272.738 192.293L288.955 194.178C291.391 194.461 293.596 192.715 293.879 190.279C294.162 187.843 292.416 185.638 289.98 185.355L262.62 182.175L235.271 154.826H273.561L295.446 172.154C297.369 173.677 300.163 173.352 301.685 171.429C303.208 169.506 302.883 166.713 300.96 165.19L287.871 154.826H296.029L317.914 172.154C319.837 173.677 322.63 173.352 324.153 171.429C325.676 169.506 325.351 166.713 323.428 165.19L310.338 154.826H324.559C327.012 154.826 329 152.838 329 150.385C329 147.932 327.012 145.944 324.559 145.944H310.629L323.428 135.81C325.351 134.287 325.676 131.494 324.153 129.571C322.63 127.648 319.837 127.323 317.914 128.846L296.319 145.944H288.161L300.96 135.81C302.883 134.287 303.208 131.494 301.685 129.571C300.163 127.648 297.369 127.323 295.446 128.846L273.852 145.944H235.174L262.251 118.868L289.979 115.645C292.415 115.362 294.161 113.157 293.878 110.721C293.594 108.284 291.39 106.539 288.953 106.822L272.369 108.749L278.138 102.981L305.866 99.7581C308.302 99.475 310.048 97.2703 309.765 94.8339C309.481 92.3975 307.277 90.6519 304.84 90.935L288.256 92.8624L298.311 82.807C300.046 81.0726 300.046 78.2606 298.311 76.5262C296.577 74.7918 293.765 74.7918 292.03 76.5262L282.181 86.3756L284.065 70.1597C284.348 67.7233 282.603 65.5186 280.166 65.2355C277.73 64.9523 275.525 66.6979 275.242 69.1344L272.063 96.4938L266.294 102.263L268.178 86.0467C268.461 83.6103 266.716 81.4056 264.279 81.1225C261.843 80.8393 259.638 82.5849 259.355 85.0213L256.176 112.381L228.826 139.73V101.438L246.154 79.5531C247.677 77.6301 247.352 74.8369 245.429 73.3142C243.506 71.7916 240.713 72.1163 239.19 74.0393L228.826 87.1287V78.9705L246.154 57.0858C247.677 55.1627 247.352 52.3695 245.429 50.8469C243.506 49.3243 240.713 49.6489 239.19 51.5719L228.826 64.6612V50.4413C228.826 47.9884 226.838 46 224.385 46Z" fill="url(#paint0_linear_1_2112)"/>
<defs>
<linearGradient id="paint0_linear_1_2112" x1="301.715" y1="63.2425" x2="151.758" y2="209.543" gradientUnits="userSpaceOnUse">
<stop stop-color="#D6E9FF"/>
<stop offset="1" stop-color="#2898FF"/>
</linearGradient>
</defs>
</svg>
