<svg width="450" height="300" viewBox="0 0 450 300" fill="none" xmlns="http://www.w3.org/2000/svg">
<path fill-rule="evenodd" clip-rule="evenodd" d="M265.06 75.5C265.06 71.9101 267.97 69 271.56 69C287.835 69 301 82.2235 301 98.5C301 114.776 287.835 128 271.56 128H178C174.41 128 171.5 125.09 171.5 121.5C171.5 117.91 174.41 115 178 115H271.56C280.624 115 288 107.629 288 98.5C288 89.3714 280.624 82 271.56 82C267.97 82 265.06 79.0899 265.06 75.5ZM126 150.5C126 146.91 128.91 144 132.5 144L260.5 144C264.09 144 267 146.91 267 150.5C267 154.09 264.09 157 260.5 157L132.5 157C128.91 157 126 154.09 126 150.5ZM275 150.5C275 146.91 277.91 144 281.5 144H309.5C313.09 144 316 146.91 316 150.5C316 154.09 313.09 157 309.5 157H281.5C277.91 157 275 154.09 275 150.5ZM136 178.5C136 174.91 138.91 172 142.5 172H170.5C174.09 172 177 174.91 177 178.5C177 182.09 174.09 185 170.5 185H142.5C138.91 185 136 182.09 136 178.5ZM186 178.5C186 174.91 188.91 172 192.5 172H293.584C309.852 172 323 185.23 323 201.5C323 217.77 309.852 231 293.584 231C289.994 231 287.084 228.09 287.084 224.5C287.084 220.91 289.994 218 293.584 218C302.628 218 310 210.635 310 201.5C310 192.365 302.628 185 293.584 185H192.5C188.91 185 186 182.09 186 178.5Z" fill="url(#paint0_linear_1_2113)"/>
<defs>
<linearGradient id="paint0_linear_1_2113" x1="297.282" y1="82.365" x2="182.689" y2="218.317" gradientUnits="userSpaceOnUse">
<stop stop-color="#D6E9FF"/>
<stop offset="1" stop-color="#2898FF"/>
</linearGradient>
</defs>
</svg>
